<svg width="45" height="32" viewBox="0 0 45 32" fill="none" xmlns="http://www.w3.org/2000/svg">
<path fill-rule="evenodd" clip-rule="evenodd" d="M44.1211 18.8677H42.9161C42.4487 18.8677 41.9949 18.9265 41.5616 19.0366C41.1623 16.9169 40.2175 14.7637 38.79 12.731L39.2731 11.6452C39.6307 10.8416 39.7328 9.96526 39.6012 9.12603L40.8074 7.93003C41.8976 8.46241 43.2401 8.27339 44.1464 7.37464C44.6969 6.82902 44.9999 6.10352 44.9999 5.33174C44.9999 4.56006 44.6969 3.83447 44.1465 3.28885C43.6983 2.84431 43.1167 2.56361 42.5029 2.47455C42.4132 1.86609 42.13 1.28944 41.6817 0.844813C40.5454 -0.281648 38.697 -0.281561 37.5609 0.844813C36.6546 1.74356 36.464 3.07464 37.0008 4.1557L35.7946 5.3517C34.9483 5.22124 34.0645 5.32251 33.2539 5.67711L31.7358 6.34125C28.3825 4.40746 24.6405 3.38697 20.8896 3.38697C18.1201 3.38697 15.3865 3.93156 12.7649 5.00555C10.3316 6.00243 8.10536 7.40462 6.14786 9.17353C2.29825 12.6519 0 17.1803 0 21.287C0 22.502 0.199424 23.6542 0.592119 24.7282C0.247764 24.8462 0 25.1697 0 25.5512C0 29.1072 2.91762 32 6.50391 32H18.5449C19.0303 32 19.4238 31.6098 19.4238 31.1285C19.4238 30.6472 19.0303 30.2571 18.5449 30.2571H6.50391C4.1872 30.2571 2.25281 28.6025 1.83938 26.4226H1.92032L1.92226 26.4228L1.92437 26.4226L43.1606 26.4227C42.7472 28.6025 40.8128 30.2571 38.4961 30.2571H26.4551C25.9697 30.2571 25.5762 30.6472 25.5762 31.1285C25.5762 31.6098 25.9697 32 26.4551 32H38.4961C42.0824 32 45 29.1071 45 25.5511C45 25.32 44.9074 25.0983 44.7426 24.9349C44.5777 24.7715 44.3542 24.6797 44.1211 24.6797H43.4747C44.4181 23.7069 45 22.387 45 20.934V19.7393C45 19.2579 44.6064 18.8677 44.1211 18.8677ZM43.2422 20.6107V20.9339C43.2422 22.9555 41.5835 24.6 39.5448 24.6H39.2187V24.2768C39.2187 22.2552 40.8774 20.6107 42.9161 20.6107H43.2422ZM38.5517 21.0354C38.9261 20.5412 39.3839 20.1129 39.9039 19.7701C39.6492 18.0691 38.9822 16.3218 37.9441 14.6321L36.7642 17.2839C36.3259 18.269 35.6701 19.1223 34.8624 19.7934C35.163 19.7071 35.4802 19.66 35.8085 19.66C36.932 19.66 37.9301 20.2018 38.5517 21.0354ZM35.8085 21.4029C36.7197 21.4029 37.4609 22.1379 37.4609 23.0413C37.4609 23.9447 36.7197 24.6797 35.8085 24.6797C34.8973 24.6797 34.1561 23.9448 34.1561 23.0413C34.1561 22.1378 34.8973 21.4029 35.8085 21.4029ZM32.3982 23.0413C32.3982 22.1379 31.657 21.4029 30.7458 21.4029C29.8347 21.4029 29.0935 22.1378 29.0935 23.0413C29.0935 23.9448 29.8347 24.6797 30.7458 24.6797C31.657 24.6797 32.3982 23.9447 32.3982 23.0413ZM38.7765 3.66907C38.3491 3.21564 38.361 2.51638 38.8041 2.07724C39.2548 1.63035 39.9881 1.63035 40.4388 2.07716C40.7277 2.36361 40.8415 2.76997 40.7435 3.16414C40.6696 3.46044 40.7575 3.77347 40.9752 3.98925C41.1929 4.20511 41.5085 4.29234 41.8074 4.21914C42.205 4.1218 42.6148 4.23474 42.9037 4.52119C43.122 4.73766 43.2424 5.02551 43.2424 5.33166C43.2424 5.6378 43.1221 5.92565 42.9037 6.14212C42.4609 6.58126 41.7558 6.59337 41.2982 6.1694C40.9521 5.84861 40.4118 5.85759 40.0766 6.18979L38.9149 7.3417C38.7456 7.0834 38.549 6.84008 38.3246 6.6176C38.1002 6.39502 37.8548 6.20008 37.5942 6.03232L38.756 4.88041C39.091 4.54821 39.1001 4.01234 38.7765 3.66907ZM35.0888 7.03773C34.7072 7.03773 34.3237 7.11416 33.9637 7.27163L28.2768 9.75942C26.6776 10.459 25.576 11.8373 25.2546 13.541C24.9332 15.2446 25.4577 16.9246 26.6937 18.1501C27.9296 19.3756 29.6241 19.8956 31.3422 19.577C33.0604 19.2583 34.4505 18.166 35.156 16.5803L37.665 10.9417C38.1291 9.89859 37.8947 8.65614 37.0817 7.85003C36.5469 7.31983 35.8218 7.03773 35.0888 7.03773ZM7.33192 10.4616C11.1371 7.02335 15.9521 5.12983 20.8898 5.12983C23.9078 5.12983 26.9234 5.85271 29.7011 7.23129L27.5673 8.16472C25.4607 9.08629 23.9502 10.9762 23.5267 13.2204C23.1034 15.4645 23.8226 17.7681 25.4508 19.3824C26.1901 20.1154 27.0728 20.6624 28.0279 21.0021C27.5939 21.5694 27.3357 22.2759 27.3357 23.0413C27.3357 23.6355 27.4917 24.194 27.7642 24.6797H19.8677C20.1178 24.2189 20.2611 23.6932 20.263 23.1352C20.2662 22.2517 19.9216 21.4205 19.2927 20.7948C18.6638 20.169 17.8267 19.8244 16.9357 19.8244H16.1559C16.3484 17.4905 15.0238 15.2315 12.7717 14.2848L11.8887 13.9137C11.5567 13.7742 11.172 13.8499 10.9189 14.1052C10.6659 14.3604 10.596 14.743 10.7426 15.07C11.2868 16.2842 11.1045 17.6828 10.2669 18.72L8.18613 21.2963C7.41454 22.2517 7.26715 23.5306 7.80161 24.6339C7.80585 24.6427 7.81051 24.6512 7.81516 24.6597L7.81518 24.6597C7.81881 24.6664 7.82244 24.673 7.82587 24.6797H2.46779C1.99661 23.6463 1.75781 22.5075 1.75781 21.287C1.75781 17.6624 3.84161 13.6155 7.33192 10.4616ZM14.2592 20.4493C14.7293 18.8688 14.1136 17.2059 12.806 16.2874C12.8601 17.5402 12.4609 18.7916 11.6387 19.8095L9.55802 22.3858C9.20751 22.8198 9.14309 23.3781 9.38593 23.8793C9.62877 24.3806 10.1085 24.6797 10.6693 24.6797H16.9356C17.7979 24.6797 18.502 23.9841 18.505 23.129C18.5065 22.7123 18.344 22.3202 18.0473 22.0251C17.7507 21.7299 17.3559 21.5673 16.9356 21.5673H15.1022C14.8251 21.5673 14.5643 21.4377 14.3983 21.2177C14.2324 20.9976 14.1808 20.7128 14.2592 20.4493Z" fill="black"/>
</svg>
