<svg width="31" height="37" viewBox="0 0 31 37" fill="none" xmlns="http://www.w3.org/2000/svg">
<path fill-rule="evenodd" clip-rule="evenodd" d="M26.1285 4.90357H29.2285C30.2028 4.90357 30.9999 5.70601 31 6.68687L30.9991 28.0844C30.9991 29.0651 30.419 30.4176 29.7091 31.0894L24.7606 35.7781C24.0516 36.4499 22.6734 37 21.6996 37H6.64291C5.6682 37 4.87146 36.1976 4.87146 35.2169V32.0964H1.77145C0.797097 32.0964 0 31.2939 0 30.3132V1.78315C0 0.802364 0.797097 0 1.77138 0H24.3575C25.3313 0 26.1285 0.802364 26.1285 1.78315V4.90357ZM4.87132 30.759V6.6868C4.87132 5.70601 5.66806 4.90365 6.64277 4.90365H24.8003V1.78315C24.8003 1.54157 24.5971 1.33742 24.3575 1.33742H1.77138C1.53138 1.33742 1.32857 1.54157 1.32857 1.78315V30.3133C1.32857 30.5549 1.53138 30.759 1.77138 30.759H4.87132ZM28.7985 30.1157L23.85 34.8041C23.7487 34.9 23.6166 34.994 23.4709 35.0835V30.9819C23.4709 30.6756 23.5936 30.4001 23.796 30.195C24.0001 29.9913 24.2738 29.8675 24.5781 29.8675H29.0089C28.9402 29.9614 28.8698 30.0479 28.7985 30.1157ZM29.6102 28.53C29.6465 28.37 29.6704 28.2166 29.6704 28.0842L29.6712 6.68673C29.6712 6.44514 29.4684 6.24099 29.2284 6.24099H6.64277C6.40234 6.24099 6.19996 6.44514 6.19996 6.68673V35.2168C6.19996 35.4584 6.40226 35.6625 6.64277 35.6625V35.6624H21.6995C21.8318 35.6624 21.9842 35.6407 22.1423 35.6085V30.9818C22.145 29.6288 23.234 28.5327 24.578 28.53H29.6102Z" fill="#F3F3F3"/>
<path d="M23.3437 11H10.6563C10.2936 11 10 11.4473 10 12C10 12.5527 10.2936 13 10.6563 13H23.3437C23.706 13 24 12.5527 24 12C24 11.4473 23.706 11 23.3437 11Z" fill="#F3F3F3"/>
<path d="M23.3437 20H10.6563C10.2936 20 10 20.4473 10 21C10 21.5527 10.2936 22 10.6563 22H23.3437C23.706 22 24 21.5527 24 21C24 20.4472 23.706 20 23.3437 20Z" fill="#F3F3F3"/>
<path d="M18.2899 24H10.7106C10.3178 24 10 24.4473 10 25C10 25.5527 10.3178 26 10.7106 26H18.2899C18.6822 26 19 25.5527 19 25C19 24.4473 18.6822 24 18.2899 24Z" fill="#F3F3F3"/>
<path d="M23.3437 15H10.6563C10.2936 15 10 15.4473 10 16C10 16.5527 10.2936 17 10.6563 17H23.3437C23.706 17 24 16.5527 24 16C24 15.4473 23.706 15 23.3437 15Z" fill="#F3F3F3"/>
</svg>
