<svg width="54" height="36" viewBox="0 0 54 36" fill="none" xmlns="http://www.w3.org/2000/svg">
<path fill-rule="evenodd" clip-rule="evenodd" d="M51.2306 0H2.76929C1.24611 0 0 1.24611 0 2.76918V33.2307C0 34.7537 1.24611 36 2.76929 36H51.2307C52.7537 36 54 34.7539 54 33.2307V2.76918C53.9999 1.24611 52.7538 0 51.2306 0ZM50.1914 2.07678L28.5929 18.277C28.2046 18.5725 27.6085 18.7574 26.9998 18.7546C26.3913 18.7574 25.7953 18.5725 25.4068 18.277L3.80836 2.07678H50.1914ZM50.4235 33.8844L38.6542 19.3459C38.2934 18.9001 38.362 18.2456 38.8085 17.885C39.2537 17.5243 39.9079 17.5929 40.2686 18.0387L51.9226 32.4351V3.37489L29.8381 19.9383C29.0074 20.5572 27.9966 20.8293 26.9997 20.8314C26.0015 20.8287 24.9915 20.5566 24.1614 19.9383L2.07689 3.37489V32.4353L13.7312 18.0387C14.0919 17.5928 14.7455 17.5244 15.1913 17.885C15.6379 18.2465 15.7063 18.9001 15.3457 19.3459L3.57644 33.8844C3.56988 33.8925 3.56248 33.8993 3.55506 33.9061C3.54912 33.9116 3.54316 33.9171 3.53763 33.9232H50.4623C50.4573 33.918 50.4521 33.9131 50.4468 33.9082C50.4387 33.9007 50.4306 33.8932 50.4235 33.8844Z" fill="#898989"/>
</svg>
