<svg width="17" height="12" viewBox="0 0 17 12" fill="none" xmlns="http://www.w3.org/2000/svg">
<path fill-rule="evenodd" clip-rule="evenodd" d="M16.1282 0H0.871813C0.392294 0 0 0.41537 0 0.923061V11.0769C0 11.5846 0.392294 12 0.871813 12H16.1282C16.6076 12 17 11.5846 17 11.0769V0.923061C17 0.41537 16.6077 0 16.1282 0ZM15.801 0.69226L9.00148 6.09232C8.87923 6.19083 8.69157 6.25246 8.49995 6.25154C8.30837 6.25246 8.12074 6.19083 7.99845 6.09232L1.19893 0.69226H15.801ZM15.8741 11.2948L12.1689 6.44863C12.0553 6.30002 12.0769 6.08188 12.2175 5.96168C12.3576 5.84145 12.5636 5.8643 12.6772 6.0129L16.346 10.8117V1.12496L9.39348 6.6461C9.13197 6.8524 8.81375 6.9431 8.49992 6.9438C8.18565 6.94289 7.8677 6.85219 7.60636 6.6461L0.653835 1.12496V10.8118L4.32277 6.0129C4.43633 5.86426 4.64209 5.84148 4.78244 5.96168C4.92305 6.08216 4.94457 6.30002 4.83105 6.44863L1.12592 11.2948C1.12385 11.2975 1.12152 11.2998 1.11918 11.302C1.11731 11.3039 1.11544 11.3057 1.1137 11.3077H15.8863C15.8847 11.306 15.8831 11.3044 15.8814 11.3027C15.8789 11.3002 15.8763 11.2977 15.8741 11.2948Z" fill="#F3F3F3"/>
</svg>
