<svg width="43" height="33" viewBox="0 0 43 33" fill="none" xmlns="http://www.w3.org/2000/svg">
<path fill-rule="evenodd" clip-rule="evenodd" d="M31.1181 2.01079C34.6156 2.95447 37.3831 4.21154 39.3439 5.74695C41.7699 7.64667 43 9.9839 43 12.6937V18.4625C43 23.9157 38.4846 28.3524 32.9344 28.3524C28.7212 28.3524 25.7256 29.5801 22.8285 30.7674C20.027 31.9156 17.3809 33 13.8575 33C6.21644 33 0 26.8921 0 19.3844V13.6156C0 6.10796 6.21644 0 13.8575 0C16.8065 0 24.3918 0.195897 31.1181 2.01079ZM39.8239 19.8889C39.4862 20.2013 38.9546 20.1857 38.6367 19.8537C38.3187 19.5219 38.3348 18.9996 38.6725 18.6872C40.3552 17.1306 41.3203 14.946 41.3203 12.6937C41.3203 8.56732 37.7381 5.50855 30.6734 3.60231C24.144 1.84064 16.7384 1.65044 13.8575 1.65044C7.14262 1.65044 1.67969 7.01805 1.67969 13.6157C1.67969 20.2132 7.14262 25.5807 13.8575 25.5807C17.0445 25.5807 19.5397 24.5581 22.1814 23.4755L22.1819 23.4753L22.182 23.4752C25.2316 22.2254 28.385 20.9331 32.9344 20.9331C33.1953 20.9331 33.4588 20.921 33.7177 20.8972C34.179 20.8548 34.589 21.1881 34.6322 21.6418C34.6755 22.0955 34.3362 22.4978 33.8743 22.5403C33.5636 22.5689 33.2474 22.5834 32.9344 22.5834C28.7212 22.5834 25.7256 23.8111 22.8285 24.9984C20.027 26.1466 17.3809 27.231 13.8575 27.231C8.62662 27.231 4.06384 24.3682 1.70555 20.1538C2.1107 26.3942 7.40583 31.3496 13.8575 31.3496C17.0445 31.3496 19.5397 30.327 22.1814 29.2444L22.1819 29.2442L22.182 29.2441C25.2316 27.9943 28.385 26.702 32.9344 26.702C37.5584 26.702 41.3203 23.0059 41.3203 18.4625V18.1427C40.8945 18.7748 40.3935 19.362 39.8239 19.8889Z" fill="black"/>
<path d="M37.9047 20.574C37.6698 20.0747 37.0748 19.8603 36.5759 20.0954C36.5688 20.0987 36.5593 20.1034 36.5522 20.1069C36.059 20.3537 35.859 20.9539 36.1056 21.4474C36.2806 21.7976 36.6333 22 36.9997 22C37.1477 22 37.2979 21.9669 37.4395 21.8973C37.9291 21.6582 38.1375 21.0689 37.9047 20.574Z" fill="black"/>
<path d="M20.1027 4.00728L20.0525 4.00309C19.515 3.96018 19.0459 4.36912 19.0031 4.91857C18.9603 5.46792 19.3607 5.94881 19.8974 5.99272L19.9472 5.99671C19.9737 5.9989 19.9999 6 20.026 6C20.5292 6 20.9559 5.60383 20.9969 5.08163C21.0397 4.53218 20.6394 4.05129 20.1027 4.00728Z" fill="black"/>
<path d="M39.4797 10.9512C38.6531 9.38292 36.8139 8.02757 34.0131 6.92294C31.7469 6.0291 29.2685 5.46447 27.5884 5.14807C26.5815 4.95855 25.5263 4.78927 24.4522 4.64511C23.9966 4.58336 23.5752 4.88895 23.5114 5.32663C23.4477 5.76423 23.7655 6.16846 24.2213 6.22966C25.2655 6.36982 26.2904 6.53422 27.2676 6.71822C32.9918 7.79589 36.9008 9.60204 37.9925 11.6734C38.2218 12.1087 38.3333 12.5774 38.3333 13.1063C38.3333 15.7464 36.0959 17.8943 33.3458 17.8943C30.5651 17.8943 27.8649 18.3305 25.0907 19.228C23.8959 19.6147 22.7357 20.0768 21.6138 20.5239C20.8718 20.8195 20.1044 21.1252 19.3428 21.4023C17.4207 22.1016 15.9474 22.4 14.4169 22.4C9.59206 22.4 5.66674 18.6318 5.66674 14.0001C5.66674 9.36828 9.59206 5.59999 14.4169 5.59999C15.3581 5.59999 16.3137 5.61711 17.2569 5.65087C17.4169 5.65655 17.5772 5.66271 17.7375 5.66951C18.1969 5.68951 18.5865 5.34695 18.6068 4.90551C18.6271 4.46416 18.2708 4.09048 17.811 4.07104C17.6469 4.06408 17.4827 4.05776 17.3189 4.05192C16.3551 4.01744 15.3787 4 14.4168 4C8.67298 4 4 8.48596 4 14.0001C4 19.514 8.67289 24 14.4168 24C16.1614 24 17.8112 23.6706 19.9333 22.8984C20.7193 22.6125 21.4988 22.3019 22.2527 22.0015C23.3487 21.5649 24.4822 21.1133 25.623 20.7442C28.2228 19.9031 30.749 19.4942 33.3458 19.4942C37.0149 19.4944 40 16.6287 40 13.1064C40 12.3207 39.8298 11.6157 39.4797 10.9512Z" fill="black"/>
<path fill-rule="evenodd" clip-rule="evenodd" d="M10 11C10 8.79438 11.7944 7 14 7C16.2056 7 18 8.79438 18 11C18 13.2056 16.2056 15 14 15C11.7944 15 10 13.2056 10 11ZM11.5779 10.9999C11.5779 12.2461 12.6644 13.2599 14 13.2599C15.3356 13.2599 16.4221 12.2461 16.4221 10.9999C16.4221 9.75372 15.3356 8.73991 14 8.73991C12.6644 8.73991 11.5779 9.75381 11.5779 10.9999Z" fill="black"/>
</svg>
