<svg width="30" height="53" viewBox="0 0 30 53" fill="none" xmlns="http://www.w3.org/2000/svg">
<path fill-rule="evenodd" clip-rule="evenodd" d="M26.1864 0H3.81356C1.71071 0 0 1.74134 0 3.88184V49.1182C0 51.2587 1.71071 53 3.81356 53H26.1864C28.2893 53 30 51.2587 30 49.1182V3.88184C30 1.74134 28.2893 0 26.1864 0ZM28.4746 42.1309H6.86441C6.44319 42.1309 6.1017 42.4785 6.1017 42.9072C6.1017 43.336 6.44319 43.6836 6.86441 43.6836H28.4746V49.1182C28.4746 50.4025 27.4482 51.4473 26.1864 51.4473H3.81356C2.55183 51.4473 1.52542 50.4025 1.52542 49.1182V43.6836H3.81356C4.23478 43.6836 4.57627 43.336 4.57627 42.9072C4.57627 42.4785 4.23478 42.1309 3.81356 42.1309H1.52542V7.76367H28.4746V42.1309ZM1.52542 6.21094H28.4746V3.88184C28.4746 2.59752 27.4482 1.55273 26.1864 1.55273H3.81356C2.55183 1.55273 1.52542 2.59752 1.52542 3.88184V6.21094Z" fill="#898989"/>
<path d="M17.3333 3H14.6667C14.2985 3 14 3.22387 14 3.5C14 3.77613 14.2985 4 14.6667 4H17.3333C17.7015 4 18 3.77613 18 3.5C18 3.22387 17.7015 3 17.3333 3Z" fill="#898989"/>
<path fill-rule="evenodd" clip-rule="evenodd" d="M13 47.5C13 46.1214 13.8972 45 15 45C16.1028 45 17 46.1214 17 47.5C17 48.8786 16.1028 50 15 50C13.8972 50 13 48.8786 13 47.5ZM14.3333 47.5C14.3333 47.9596 14.6324 48.3333 15 48.3333C15.3676 48.3333 15.6667 47.9596 15.6667 47.5C15.6667 47.0404 15.3676 46.6667 15 46.6667C14.6324 46.6667 14.3333 47.0404 14.3333 47.5Z" fill="#898989"/>
<circle cx="11.5" cy="3.5" r="0.5" fill="#898989"/>
</svg>
