<svg width="17" height="17" viewBox="0 0 17 17" fill="none" xmlns="http://www.w3.org/2000/svg">
<path fill-rule="evenodd" clip-rule="evenodd" d="M12.2521 9.98208C12.6986 9.98208 13.1198 10.1756 13.469 10.5376L15.4456 12.5125C15.8092 12.871 16 13.2975 16 13.7419C16 14.1828 15.8128 14.6129 15.4564 14.9821C15.3015 15.1434 15.1431 15.2975 14.9883 15.4444C14.9715 15.4606 14.9548 15.4768 14.9381 15.4928C14.7297 15.6935 14.5316 15.8841 14.3583 16.0932C14.3565 16.0968 14.3538 16.0995 14.3511 16.1021C14.3484 16.1048 14.3457 16.1075 14.3439 16.1111C13.7966 16.7025 13.0982 17 12.2665 17C12.1945 17 12.1153 16.9964 12.0397 16.9928C10.8048 16.914 9.69953 16.4516 8.87147 16.0609C6.70411 15.0179 4.80677 13.5376 3.22985 11.6631C1.93016 10.1075 1.05889 8.65591 0.475649 7.08961C0.238031 6.45161 -0.0715918 5.4767 0.0148146 4.43011C0.0724188 3.78136 0.335238 3.22222 0.796072 2.76344L2.02016 1.53405L2.02736 1.52688C2.38739 1.1828 2.81222 1 3.25145 1C3.69069 1 4.10832 1.1828 4.45754 1.52688C4.69156 1.74194 4.91838 1.97133 5.13439 2.19355C5.2424 2.30824 5.35761 2.42294 5.46922 2.53405L6.45209 3.51254C7.20815 4.26523 7.20815 5.24014 6.45209 5.99283C6.40169 6.04301 6.35128 6.09409 6.30088 6.14516C6.25048 6.19624 6.20007 6.24731 6.14967 6.29749C6.12397 6.32342 6.09821 6.34945 6.07236 6.37556C5.83026 6.62014 5.58115 6.87181 5.31441 7.1147C5.53402 7.59857 5.83645 8.07527 6.28648 8.64158C7.21535 9.77778 8.18382 10.6559 9.2495 11.3297C9.35391 11.3943 9.47632 11.4552 9.60593 11.5197C9.63644 11.5355 9.66737 11.5513 9.69857 11.5672C9.7594 11.5983 9.82127 11.6299 9.88315 11.6631L11.0208 10.534C11.3845 10.172 11.8093 9.98208 12.2521 9.98208ZM14.4008 14.6695C14.5249 14.5494 14.6426 14.4354 14.7579 14.3118C15.1251 13.9319 15.1251 13.5556 14.7543 13.19L12.7706 11.2151L12.7634 11.2079C12.6518 11.086 12.4681 10.9462 12.2449 10.9462C12.0181 10.9462 11.8237 11.0932 11.7013 11.2151L10.47 12.4409C10.4088 12.5018 10.2216 12.6882 9.92275 12.6882C9.80394 12.6882 9.68873 12.6595 9.56632 12.5986C9.55912 12.595 9.55192 12.5905 9.54472 12.586C9.53752 12.5815 9.53032 12.5771 9.52312 12.5735C9.41871 12.509 9.2963 12.448 9.16669 12.3835L9.16666 12.3835C9.02266 12.3118 8.87146 12.2366 8.72386 12.1434C7.56817 11.4158 6.5205 10.466 5.52682 9.24731L5.52322 9.24373C4.97598 8.55197 4.61596 7.97133 4.36034 7.35484L4.34954 7.32258C4.28473 7.11828 4.22713 6.8172 4.53675 6.50896C4.53907 6.50433 4.5429 6.5012 4.54726 6.49763C4.54965 6.49567 4.5522 6.49358 4.55475 6.49104C4.86797 6.21147 5.156 5.92473 5.45842 5.61649C5.52789 5.54971 5.59576 5.48135 5.66416 5.41246C5.69857 5.37781 5.7331 5.34303 5.76804 5.30824C6.14967 4.92832 6.14967 4.57706 5.76804 4.19713L4.78517 3.21864C4.72801 3.15996 4.67086 3.10217 4.61415 3.04482C4.55654 2.98656 4.49938 2.92876 4.44314 2.87097C4.22353 2.64516 4.01471 2.43369 3.79509 2.22939L3.78429 2.21864C3.66909 2.10394 3.48547 1.96774 3.25866 1.96774C3.07504 1.96774 2.88783 2.05735 2.71141 2.22222L1.48372 3.44444C1.1849 3.74194 1.02289 4.08961 0.986887 4.50896C0.932883 5.16487 1.05529 5.86022 1.39012 6.75269C1.93376 8.21505 2.75462 9.57706 3.98231 11.0502C5.46922 12.8172 7.25855 14.2115 9.2963 15.1935C10.0416 15.5484 11.0352 15.9642 12.1045 16.0323C12.1585 16.0358 12.2161 16.0358 12.2701 16.0358C12.8318 16.0358 13.2602 15.853 13.6238 15.466C13.847 15.2043 14.0847 14.9713 14.3187 14.7491C14.3464 14.7222 14.3737 14.6957 14.4008 14.6695Z" fill="#F3F3F3"/>
<path d="M9.3891 3.93783C10.3065 4.09191 11.1399 4.52614 11.8052 5.1915C12.4705 5.85685 12.9012 6.6903 13.0588 7.60779C13.0973 7.83891 13.2969 8 13.5245 8C13.5525 8 13.577 7.9965 13.605 7.993C13.8641 7.95097 14.0357 7.70584 13.9937 7.4467C13.8046 6.33661 13.2794 5.32457 12.4775 4.52264C11.6756 3.72071 10.6637 3.19543 9.55368 3.00633C9.29456 2.96431 9.05295 3.1359 9.00743 3.39154C8.96191 3.64717 9.12999 3.8958 9.3891 3.93783Z" fill="#F3F3F3"/>
<path d="M16.9927 7.44436C16.6758 5.5851 15.7999 3.89325 14.454 2.54689C13.1081 1.20053 11.4169 0.324331 9.55831 0.0073307C9.29839 -0.0389726 9.05272 0.139117 9.00643 0.399128C8.96371 0.662701 9.13817 0.908465 9.40165 0.954768C11.0609 1.23615 12.5741 2.02331 13.7775 3.22363C14.981 4.42752 15.7643 5.94128 16.0456 7.60108C16.0847 7.83616 16.2877 8 16.5191 8C16.5476 8 16.5725 7.99644 16.601 7.99288C16.8609 7.9537 17.039 7.70437 16.9927 7.44436Z" fill="#F3F3F3"/>
</svg>
