<svg width="39" height="56" viewBox="0 0 39 56" fill="none" xmlns="http://www.w3.org/2000/svg">
<path d="M35.5098 8.29052C33.7681 5.80081 31.444 3.731 28.7887 2.30453C25.9421 0.77536 22.8188 0 19.5059 0C16.5333 0 13.6987 0.629562 11.0808 1.87119C8.60065 3.04752 6.43362 4.71177 4.64005 6.81789C0.853087 11.2647 -0.724713 17.0473 0.311105 22.6831C0.722356 24.92 1.56158 27.0768 2.80558 29.0935L19.076 55.4727C19.278 55.8003 19.6398 56 20.0293 56C20.0344 56 20.0397 56 20.0449 55.9999C20.4403 55.9944 20.8032 55.7838 20.9986 55.4465L28.5441 42.4075C28.8481 41.8822 28.6606 41.2147 28.1254 40.9163C27.5901 40.6179 26.9098 40.802 26.6059 41.3272L19.9988 52.7445L4.71249 27.9607C3.61014 26.1737 2.86732 24.2674 2.50478 22.2947C1.58643 17.2986 2.98814 12.169 6.35036 8.22073C9.66366 4.33016 14.3358 2.1875 19.506 2.1875C25.2451 2.1875 30.4084 4.86325 33.6723 9.52864C36.9523 14.2173 37.6775 20.1598 35.612 25.4249C35.3377 26.1241 34.9848 26.848 34.5634 27.5761L31.0088 33.7186C30.7048 34.2439 30.8924 34.9114 31.4275 35.2098C31.9627 35.5082 32.643 35.3242 32.947 34.7989L36.5016 28.6564C36.9775 27.834 37.3781 27.0112 37.6921 26.2108C40.0218 20.2729 39.206 13.5738 35.5098 8.29052Z" fill="#898989"/>
<circle cx="30" cy="38" r="1" fill="#898989"/>
<path fill-rule="evenodd" clip-rule="evenodd" d="M20.5 6C28.4954 6 35 12.2803 35 20C35 27.7197 28.4954 34 20.5 34C12.5046 34 6 27.7197 6 20C6 12.2803 12.5046 6 20.5 6ZM8.27451 20C8.27451 26.5086 13.7588 31.8039 20.5 31.8039C27.2412 31.8039 32.7255 26.5086 32.7255 20C32.7255 13.4914 27.2412 8.19608 20.5 8.19608C13.7588 8.19608 8.27451 13.4914 8.27451 20Z" fill="#898989"/>
</svg>
