<svg width="41" height="46" viewBox="0 0 41 46" fill="none" xmlns="http://www.w3.org/2000/svg">
<path fill-rule="evenodd" clip-rule="evenodd" d="M40.8922 4.82588C40.7095 4.43312 40.3215 4.16921 39.8798 4.13742C38.3195 4.02507 36.2506 3.99416 34.9459 4.43956C35.0497 3.33492 34.9865 2.07757 34.892 1.06947C34.8517 0.640313 34.574 0.267506 34.1672 0.0965154C33.7602 -0.0743873 33.2906 -0.0154766 32.9413 0.250637C31.615 1.26148 29.918 2.72753 29.3661 3.97093C29.1876 4.37315 29.0726 4.75293 29.0115 5.10834C28.5063 4.47101 27.9413 3.8562 27.4336 3.33757C27.128 3.02553 26.6724 2.90126 26.2443 3.01281C25.8164 3.12463 25.486 3.45433 25.3821 3.87342C24.9873 5.46622 24.5927 7.64017 24.9543 8.95095C25.0213 9.19402 25.1019 9.42348 25.1949 9.6381C24.2922 8.372 22.6288 7.02262 21.2838 6.04578C20.8985 5.76607 20.3878 5.71361 19.9508 5.9088C19.5138 6.10417 19.222 6.51548 19.1891 6.98235C19.1505 7.53233 19.1268 8.07295 19.1185 8.58919C19.1126 8.95502 19.4126 9.2562 19.7885 9.26185L19.7994 9.26194C20.1703 9.26194 20.474 8.97215 20.4798 8.60986C20.4873 8.14396 20.508 7.65642 20.5414 7.15979C22.5552 8.63017 23.9533 9.99094 24.3823 10.8995C25.0778 12.3725 24.8534 13.581 23.7966 14.0537C22.7399 14.5265 21.6513 13.9047 20.9559 12.4319C20.8195 12.143 20.7097 11.7474 20.6295 11.256C20.5706 10.8946 20.2219 10.6482 19.8505 10.7056C19.4792 10.763 19.2261 11.1024 19.285 11.4637C19.386 12.0831 19.5279 12.5807 19.7188 12.9851C19.8552 13.274 20.003 13.5349 20.1598 13.7701C18.8294 12.6366 16.7317 11.5909 15.0502 10.8571C14.5812 10.653 14.0359 10.7145 13.6269 11.0176C13.2184 11.3205 13.0127 11.8152 13.0902 12.3091C13.3827 14.1708 13.9027 16.6039 14.7629 18.1602C14.5714 18.3383 14.3814 18.5258 14.1893 18.7155L14.0891 18.8144C12.5837 18.1762 10.907 17.6764 9.71797 17.3597C9.18821 17.2185 8.62205 17.3701 8.24067 17.7555C7.85894 18.1412 7.72443 18.6981 7.88961 19.2087C8.05716 19.7268 8.30466 20.4535 8.61079 21.244C6.60899 21.7606 5.26157 22.6913 4.69596 23.1413C4.03632 23.015 3.35652 23.1058 2.74462 23.4088C1.97834 23.7886 1.41209 24.4492 1.15024 25.2691C0.789293 26.3991 1.10005 27.5916 1.85799 28.4015C1.16685 29.6885 0.366987 31.497 0.0103012 33.4813C-0.0545014 33.8416 0.193182 34.1849 0.563573 34.2479C0.603235 34.2546 0.642716 34.2579 0.681652 34.2579C1.00612 34.2579 1.29355 34.0313 1.35137 33.7095C1.66522 31.9636 2.36044 30.3522 2.98396 29.1672C3.03696 29.188 3.0906 29.2078 3.14524 29.2259C3.31133 29.281 6.05618 30.1777 10.2368 30.7473C10.0519 32.1559 9.8591 34.32 10.0427 36.375C10.1256 37.3014 10.911 38 11.8699 38H21.3826C22.3727 38 23.1778 37.2456 23.2155 36.2818C23.2633 35.0205 23.3022 32.7486 23.0834 30.8105C25.3121 30.51 27.4694 30.0406 29.5396 29.4057C30.2549 30.536 31.1126 32.1041 31.6229 33.7832C31.7105 34.0714 31.9815 34.2579 32.2754 34.2579C32.3393 34.2579 32.4043 34.2491 32.4687 34.2305C32.8292 34.1267 33.0351 33.7582 32.9284 33.4074C32.4041 31.6822 31.5501 30.0815 30.8122 28.8927C31.9742 28.1464 32.5479 26.6756 32.1164 25.2907C31.8603 24.4684 31.2982 23.8034 30.5338 23.4183C30.2732 23.287 29.9996 23.195 29.7204 23.1414C30.3115 22.9012 30.8411 22.6664 31.2493 22.4784C31.7139 22.265 32.0209 21.8224 32.0507 21.3235C32.0805 20.824 31.8277 20.3494 31.3909 20.0849C30.6566 19.6405 29.8122 19.1604 28.9459 18.7307C30.5283 18.4869 32.5622 17.5259 34.0816 16.7041C34.5018 16.4768 34.7604 16.0448 34.7563 15.5769C34.7523 15.1089 34.4863 14.6813 34.0624 14.4609C33.71 14.2777 33.33 14.0877 32.9349 13.9009C34.2605 13.6915 35.9205 12.95 37.1722 12.3089C37.5642 12.108 37.8116 11.7153 37.8179 11.2842C37.8243 10.8531 37.5885 10.4537 37.2026 10.242C36.9384 10.0971 36.6553 9.94696 36.3609 9.79823C36.5695 9.73499 36.7809 9.65779 36.9944 9.56382C38.265 9.00403 39.7412 7.32804 40.756 6.02044C41.0226 5.67642 41.0749 5.21883 40.8922 4.82588ZM30.6159 4.49636C30.9379 3.77088 32.0055 2.67286 33.5604 1.4633C33.6994 3.13523 33.6485 4.51375 33.4192 5.31792C33.0909 5.60329 32.8344 5.92266 32.6594 6.26889C32.5749 6.43599 32.5107 6.60786 32.4655 6.7823C32.3998 6.82302 32.2984 6.88687 32.1656 6.97308C31.8282 7.12976 31.4706 7.13426 31.1109 6.98279C30.2674 6.62774 30.0824 5.69824 30.6159 4.49636ZM32.3607 8.45697C32.45 8.45988 32.5417 8.46651 32.6357 8.47649C32.6339 8.4726 32.6318 8.46898 32.63 8.4651C32.607 8.41555 32.5859 8.36565 32.5661 8.31557C32.5017 8.35946 32.433 8.4068 32.3607 8.45697ZM26.6409 4.4506C27.9984 5.86525 28.891 7.10229 29.102 7.86751C29.2342 8.34674 29.2682 8.77829 29.2085 9.14332C28.7769 9.4929 28.3169 9.8801 27.8373 10.3033C27.5979 10.2947 27.3726 10.2189 27.1642 10.0742C26.7671 9.7984 26.4576 9.29135 26.269 8.60774C26.0579 7.84252 26.1937 6.33681 26.6409 4.4506ZM28.2488 12.4702C28.526 12.4702 28.8263 12.5018 29.1415 12.5576C28.9358 12.2363 28.8078 11.8735 28.7655 11.486C28.7097 11.5042 28.6533 11.5215 28.5956 11.5365C28.5487 11.5488 28.5019 11.5588 28.455 11.5686C28.1205 11.8695 27.7775 12.1879 27.4285 12.5234C27.6814 12.4909 27.9449 12.4725 28.2189 12.4703L28.2488 12.4702ZM26.3731 11.1525C26.478 11.2252 26.5867 11.2889 26.698 11.3453C26.5024 11.5308 26.3046 11.7223 26.1055 11.9187C26.0448 11.4707 25.9062 10.9876 25.6761 10.4732C25.8805 10.7435 26.1136 10.9721 26.3731 11.1525ZM24.7806 17.3963C24.4575 16.9761 24.2694 16.4953 24.2076 16.0031C23.7997 16.5011 23.3961 17.0202 23.0011 17.56C23.5372 17.4285 24.1346 17.3722 24.7806 17.3963ZM22.8588 15.5201C22.5777 15.8728 22.2988 16.2357 22.0232 16.6087C21.8747 16.0589 21.5965 15.4702 21.157 14.8531C21.6997 15.2649 22.2854 15.4748 22.8588 15.5201ZM14.4515 12.0715C14.4321 12.0859 14.4341 12.0988 14.4358 12.1091C14.789 14.3579 15.2928 16.1998 15.8521 17.3232C16.305 17.0675 16.7945 16.9224 17.3567 16.9657C18.6262 17.0626 19.2141 17.5291 19.8363 18.0231C20.0513 18.1937 20.2771 18.3729 20.5543 18.554C21.0352 17.7143 20.7964 16.565 19.865 15.375C19.1365 14.4438 17.1786 13.2379 14.4936 12.0663L14.4935 12.0663C14.4841 12.0622 14.4715 12.0568 14.4515 12.0715ZM9.22106 18.6746C9.25927 18.6361 9.30556 18.6237 9.35829 18.6376C10.3611 18.9047 11.7215 19.3058 13.0047 19.8085C12.2933 20.3809 11.4819 20.8312 10.4242 20.9286C10.2679 20.943 10.1153 20.9613 9.96457 20.9814C9.63229 20.1409 9.36446 19.3566 9.18802 18.8111C9.17123 18.7595 9.1824 18.7136 9.22106 18.6746ZM14.694 20.0996C13.6878 21.0614 12.4274 22.0749 10.5524 22.2476C8.69565 22.4186 7.27054 23.0709 6.38427 23.6035C7.64266 23.9219 9.74175 24.3779 12.3417 24.6557C16.1185 25.0594 21.751 25.1617 27.4884 23.4533C26.7937 22.2842 25.1254 21.5993 22.1865 20.7209C20.413 20.1903 19.6162 19.558 18.976 19.0498C18.427 18.614 18.0956 18.351 17.2504 18.2864C16.6185 18.2396 16.0438 18.7715 15.1589 19.6456L15.1568 19.6477C15.0153 19.7874 14.8691 19.9318 14.7173 20.0773L14.7103 20.0841C14.705 20.0894 14.6996 20.0946 14.694 20.0996ZM21.8547 36.2325C21.845 36.481 21.6376 36.6755 21.3823 36.6755H11.8696C11.6264 36.6755 11.4195 36.4932 11.3988 36.2605C11.2255 34.3211 11.4104 32.2593 11.5872 30.9137C13.2311 31.0935 15.0536 31.2126 16.9974 31.2126C18.6044 31.2126 20.1838 31.1304 21.7318 30.9707C21.9394 32.8175 21.901 35.0122 21.8547 36.2325ZM30.8134 25.6754C30.6647 25.1982 30.343 24.8146 29.9078 24.5952C29.5038 24.3917 29.0451 24.356 28.6164 24.4947C22.4069 26.5033 16.258 26.407 12.1932 25.9726C7.72607 25.4953 4.68425 24.5081 4.65403 24.4982C4.4785 24.4402 4.29789 24.4114 4.11818 24.4114C3.85888 24.4114 3.6013 24.4714 3.36224 24.5898C2.92605 24.806 2.60213 25.187 2.4502 25.6627C2.14225 26.6266 2.65105 27.6626 3.58433 27.9723C3.82004 28.0505 9.44424 29.8877 16.9974 29.8877C21.4809 29.8877 25.7423 29.2446 29.6631 27.9763C30.5983 27.6737 31.1143 26.6415 30.8134 25.6754ZM30.6713 21.2099L30.6715 21.21C30.681 21.2158 30.6927 21.223 30.6913 21.2471C30.6898 21.2705 30.6783 21.2759 30.6674 21.2809L30.6673 21.2809C30.0756 21.5534 29.2196 21.9277 28.3009 22.2658C27.1857 20.927 25.1589 20.2234 22.5861 19.4544C22.4703 19.4197 22.3612 19.3846 22.2551 19.3493C22.8343 18.8869 23.7371 18.6634 24.851 18.7254C26.0527 18.7928 28.1743 19.6984 30.6713 21.2099ZM28.2617 17.4646C29.2891 17.4563 31.1376 16.7733 33.3413 15.5886C31.1315 14.447 29.2811 13.7951 28.2497 13.7951L28.2302 13.7952C27.3298 13.8025 26.605 14.0091 26.1341 14.3927C25.7446 14.71 25.541 15.1454 25.5454 15.6518C25.5551 16.7834 26.5983 17.4813 28.2617 17.4646ZM32.2656 12.6341L32.2381 12.6339C31.5109 12.6237 30.9296 12.4561 30.5574 12.1493C30.2551 11.9 30.1048 11.5729 30.1106 11.1768C30.1164 10.7808 30.2763 10.4579 30.5859 10.2172C30.955 9.93018 31.5162 9.77924 32.212 9.77924C32.2346 9.77924 32.2574 9.77941 32.2801 9.77968C33.0941 9.79107 34.5454 10.3294 36.2879 11.263C34.5385 12.1377 33.0848 12.6341 32.2656 12.6341ZM34.6998 8.61392C35.1707 8.73757 35.77 8.64881 36.4327 8.35681C37.1743 8.0302 38.2841 6.97272 39.4986 5.43972C37.5138 5.31616 35.9648 5.42956 35.2231 5.75627C34.5605 6.04817 34.0964 6.4276 33.8811 6.85358C33.7061 7.19962 33.7025 7.55803 33.8703 7.91883C34.0382 8.27962 34.3172 8.5135 34.6998 8.61392Z" fill="black"/>
<path d="M31.5861 41.4117C32.5617 40.0915 33.0362 38.5032 32.9978 36.6802C32.9897 36.2963 32.6828 35.9909 32.3141 36.0004C31.9445 36.0088 31.6515 36.3268 31.6596 36.7106C31.6954 38.4129 31.194 39.8565 30.1693 41.0007C30.0421 41.1427 29.9778 41.3334 29.992 41.5268C30.0061 41.7202 30.0974 41.8986 30.2436 42.0191C30.8865 42.5483 31.1534 43.09 31.1889 43.4202C31.2088 43.6066 31.1573 43.6976 31.1166 43.7499C30.8313 44.1174 29.6528 44.1458 28.4559 43.3536C28.3156 43.2608 28.1809 43.1599 28.0554 43.0536C27.8617 42.8895 27.5959 42.8513 27.3666 42.9544C24.924 44.0528 21.4468 44.6096 17.0315 44.6096C12.2692 44.6096 8.52168 43.966 5.89292 42.6966C5.64117 42.5749 5.34311 42.6276 5.1441 42.8287C4.95536 43.0195 4.73886 43.1961 4.50086 43.3536C3.3037 44.1458 2.12536 44.1174 1.84006 43.7499C1.81463 43.7171 1.73726 43.6174 1.7726 43.3832C1.83025 43.001 2.19122 42.3545 3.01848 41.7903C3.18501 41.6767 3.29415 41.492 3.31628 41.2864C3.33841 41.0808 3.2713 40.8757 3.13316 40.7267C2.09511 39.6073 1.49024 38.2275 1.33523 36.6259C1.29819 36.2439 0.969967 35.9642 0.602386 36.0037C0.234536 36.0421 -0.0335423 36.383 0.00340328 36.765C0.163233 38.4164 0.725002 39.8742 1.67577 41.1085C1.00093 41.7262 0.556694 42.4621 0.450141 43.1676C0.36688 43.7191 0.487176 44.2223 0.798001 44.6226C1.62526 45.6883 3.52635 45.6468 5.22022 44.5261C5.39978 44.4073 5.57085 44.2794 5.73175 44.144C8.50749 45.3759 12.3058 46 17.0315 46C21.4216 46 24.9524 45.4574 27.5357 44.387C27.6016 44.4348 27.6686 44.4813 27.7365 44.5262C29.4302 45.647 31.3313 45.6885 32.1586 44.6227C32.4496 44.248 32.5742 43.7789 32.5192 43.2663C32.4525 42.645 32.1204 41.9928 31.5861 41.4117Z" fill="black"/>
<path d="M21.5 21C21.2239 21 21 21.2119 21 21.4734V21.5266C21 21.7881 21.2239 22 21.5 22C21.7761 22 22 21.7881 22 21.5266V21.4734C22.0001 21.212 21.7762 21 21.5 21Z" fill="black"/>
<path d="M18.5 22C18.2239 22 18 22.2119 18 22.4734V22.5266C18 22.7881 18.2239 23 18.5 23C18.7761 23 19 22.7881 19 22.5266V22.4734C19 22.2119 18.7761 22 18.5 22Z" fill="black"/>
<path d="M16.5 20C16.2239 20 16 20.2119 16 20.4734V20.5266C16 20.7881 16.2239 21 16.5 21C16.7761 21 17 20.7881 17 20.5266V20.4734C17 20.2119 16.7761 20 16.5 20Z" fill="black"/>
<path d="M15.5 22C15.2239 22 15 22.2119 15 22.4734V22.5266C15 22.7881 15.2239 23 15.5 23C15.7761 23 16 22.7881 16 22.5266V22.4734C16.0001 22.2119 15.7762 22 15.5 22Z" fill="black"/>
</svg>
