<?xml version="1.0"?>
<svg xmlns="http://www.w3.org/2000/svg" id="Outline" viewBox="0 0 512 512" width="512" height="512"><path d="M488,256H451.7A31.965,31.965,0,0,0,431.4,208.874a56.541,56.541,0,0,0-2.912-11.683C423.366,183.525,413.248,176,400,176a8,8,0,0,0,0,16c4,0,9.744,1.088,13.391,10.5a37.988,37.988,0,0,1,1.862,6.728A31.964,31.964,0,0,0,396.305,256H338.753l20.91-69.7a7.971,7.971,0,0,0-4.388-9.585,31.98,31.98,0,0,0-12.489-45.1,63.994,63.994,0,0,0-125.572,0,31.98,31.98,0,0,0-12.489,45.1,7.971,7.971,0,0,0-4.388,9.585l15.19,50.633A261.643,261.643,0,0,0,168,232c-19.813,0-53.114,3.736-81.76,14.266C41.41,262.745,32,286.758,32,304v.258C21.52,316.428,16,330.108,16,344v8c0,10.048,7.838,18.469,19.277,22.091l9.932,39.731A23.967,23.967,0,0,0,68.492,432H488a8,8,0,0,0,8-8V264A8,8,0,0,0,488,256Zm-80-16a16,16,0,1,1,16,16A16.019,16.019,0,0,1,408,240ZM272.616,256l12.8-32H300.9l-4.49,13.47a8,8,0,1,0,15.18,5.06L317.767,224h13.881l-9.6,32ZM226.947,144.819a8,8,0,0,0,5.417-6.632,47.988,47.988,0,0,1,95.272,0,8,8,0,0,0,5.417,6.632A16,16,0,0,1,328,176H232a16,16,0,0,1-5.053-31.181ZM228.353,224H240a8,8,0,0,0,0-16H224c-.149,0-.294.014-.441.022L218.752,192h122.5l-4.8,16H280v0a8,8,0,0,0-7.428,5.025l-14.6,36.506q-3.9-1.677-8.21-3.269c-5.3-1.95-10.77-3.666-16.278-5.169ZM32,352v-8c0-10.846,4.662-21.355,13.856-31.235A8,8,0,0,0,48,307.314V304c0-22.011,23.8-35.378,43.76-42.717C118.433,251.479,149.5,248,168,248s49.567,3.479,76.24,13.283C264.2,268.622,288,281.989,288,304v3.314a8,8,0,0,0,2.144,5.451C299.338,322.645,304,333.154,304,344v8c0,3.262-6.233,8-16,8s-16-4.738-16-8a8,8,0,0,0-16,0c0,3.262-6.233,8-16,8s-16-4.738-16-8a8,8,0,0,0-16,0c0,3.262-6.233,8-16,8s-16-4.738-16-8a8,8,0,0,0-16,0c0,3.262-6.233,8-16,8s-16-4.738-16-8a8,8,0,0,0-16,0c0,3.262-6.233,8-16,8s-16-4.738-16-8a8,8,0,0,0-16,0c0,3.262-6.233,8-16,8S32,355.262,32,352Zm288,0v-8H448v32H300.246l.477-1.909C312.162,370.469,320,362.048,320,352Zm-29.209,61.821L296.246,392H448v24H290.127C290.378,415.289,290.605,414.565,290.791,413.821ZM448,328H317.529A66.977,66.977,0,0,0,304,304.258V304H448ZM68.492,416a7.99,7.99,0,0,1-7.762-6.06L52.2,375.8c7.914-.745,14.845-3.572,19.805-7.761C77.819,372.95,86.347,376,96,376s18.181-3.05,24-7.965c5.819,4.915,14.347,7.965,24,7.965s18.181-3.05,24-7.965c5.819,4.915,14.347,7.965,24,7.965s18.181-3.05,24-7.965c5.819,4.915,14.347,7.965,24,7.965s18.181-3.05,24-7.965c4.96,4.189,11.89,7.016,19.805,7.761l-8.535,34.143A7.99,7.99,0,0,1,267.508,416ZM480,416H464V296a8,8,0,0,0-8-8H301.124a51.013,51.013,0,0,0-9.818-16H480Z"/><path d="M120,288a8.019,8.019,0,0,0,2.531-.412l24-8a8,8,0,1,0-5.06-15.18l-24,8A8,8,0,0,0,120,288Z"/><path d="M168,312a8,8,0,0,0,8-8V288a8,8,0,0,0-16,0v16A8,8,0,0,0,168,312Z"/><path d="M189.47,279.59l24,8a8,8,0,1,0,5.06-15.18l-24-8a8,8,0,0,0-5.06,15.18Z"/><path d="M280,128a16.019,16.019,0,0,1,16,16,8,8,0,0,0,16,0,32.036,32.036,0,0,0-32-32,8,8,0,0,0,0,16Z"/></svg>
