<?xml version="1.0"?>
<svg xmlns="http://www.w3.org/2000/svg" height="512px" viewBox="0 0 480 480.00682" width="512px"><g><path d="m423.921875 376.007812c0-4.417968-3.582031-8-8-8h-312c-8.839844 0-16 7.164063-16 16v48c0 8.835938 7.160156 16 16 16h312c4.417969 0 8-3.582031 8-8 0-4.417968-3.582031-8-8-8h-312v-16h160c4.417969 0 8-3.582031 8-8 0-4.417968-3.582031-8-8-8h-160v-16h312c4.417969 0 8-3.582031 8-8zm0 0" data-original="#000000" class="active-path" data-old_color="#005c82" fill="#005c82"/><path d="m415.921875 336.007812h-312c-26.5.027344-47.976563 21.5-48 48v48c.023437 26.496094 21.5 47.972657 48 48h312c4.417969 0 8-3.582031 8-8 0-4.417968-3.582031-8-8-8h-312c-17.675781 0-32-14.328124-32-32v-48c0-17.675781 14.324219-32 32-32h312c4.417969 0 8-3.582031 8-8 0-4.417968-3.582031-8-8-8zm0 0" data-original="#000000" class="active-path" data-old_color="#005c82" fill="#005c82"/><path d="m311.921875 400.007812c-4.417969 0-8 3.582032-8 8 0 4.417969 3.582031 8 8 8h88c4.417969 0 8-3.582031 8-8 0-4.417968-3.582031-8-8-8zm0 0" data-original="#000000" class="active-path" data-old_color="#005c82" fill="#005c82"/><path d="m55.921875 280.007812c0 4.417969 3.582031 8 8 8h312c8.835937 0 16-7.164062 16-16v-48c0-8.835937-7.164063-16-16-16h-312c-4.417969 0-8 3.582032-8 8 0 4.417969 3.582031 8 8 8h312v16h-24c-4.417969 0-8 3.582032-8 8 0 4.417969 3.582031 8 8 8h24v16h-312c-4.417969 0-8 3.582032-8 8zm0 0" data-original="#000000" class="active-path" data-old_color="#005c82" fill="#005c82"/><path d="m375.921875 176.007812h-312c-4.417969 0-8 3.582032-8 8 0 4.417969 3.582031 8 8 8h312c17.671875 0 32 14.324219 32 32v48c0 17.671876-14.328125 32-32 32h-312c-4.417969 0-8 3.582032-8 8 0 4.417969 3.582031 8 8 8h312c26.496094-.027343 47.972656-21.503906 48-48v-48c-.027344-26.5-21.503906-47.972656-48-48zm0 0" data-original="#000000" class="active-path" data-old_color="#005c82" fill="#005c82"/><path d="m303.921875 256.007812c4.417969 0 8-3.582031 8-8 0-4.417968-3.582031-8-8-8h-72c-4.417969 0-8 3.582032-8 8 0 4.417969 3.582031 8 8 8zm0 0" data-original="#000000" class="active-path" data-old_color="#005c82" fill="#005c82"/><path d="m175.921875 256.007812c4.417969 0 8-3.582031 8-8 0-4.417968-3.582031-8-8-8h-96c-4.417969 0-8 3.582032-8 8 0 4.417969 3.582031 8 8 8zm0 0" data-original="#000000" class="active-path" data-old_color="#005c82" fill="#005c82"/><path d="m407.921875 72.007812c-.714844 0-1.417969 0-2.113281 0-17.167969-39.460937-54.179688-66.679687-96.960938-71.3125-42.78125-4.628906-84.761718 14.039063-109.976562 48.910157-18.59375-22.078125-48.589844-30.90625-76.179688-22.414063-27.589844 8.496094-47.429687 32.660156-50.386718 61.375-29.238282-3.824218-57.308594 12.824219-67.96875 40.316406-10.664063 27.492188-1.164063 58.714844 23.007812 75.605469 3.621094 2.417969 8.511719 1.492188 11.003906-2.078125 2.492188-3.570312 1.667969-8.480468-1.851562-11.042968-19.289063-13.507813-25.929688-39.007813-15.683594-60.207032 10.246094-21.199218 34.359375-31.835937 56.925781-25.113281 2.460938.742187 5.128907.253906 7.167969-1.308594 2.042969-1.5625 3.207031-4.011719 3.132812-6.578125l-.117187-2.152344c-.015625-25.300781 16.945313-47.460937 41.367187-54.058593 24.425782-6.59375 50.234376 4.015625 62.960938 25.882812 1.421875 2.464844 4.054688 3.988281 6.902344 4 2.851562-.007812 5.484375-1.53125 6.910156-4 20.105469-34.734375 58.421875-54.773437 98.417969-51.464843 39.992187 3.304687 74.5 29.363281 88.625 66.925781 1.292969 3.429687 4.75 5.539062 8.390625 5.121093 2.132812-.257812 4.277344-.394531 6.425781-.40625 24.78125-.03125 46.628906 16.25 53.679687 40.007813 7.050782 23.757813-2.375 49.320313-23.160156 62.816406-2.464844 1.527344-3.90625 4.273438-3.769531 7.167969.132813 2.898438 1.828125 5.492188 4.421875 6.785156 2.597656 1.292969 5.6875 1.082032 8.082031-.554687 26.726563-17.355469 38.84375-50.230469 29.773438-80.777344-9.066407-30.550781-37.160157-51.488281-69.027344-51.445313zm0 0" data-original="#000000" class="active-path" data-old_color="#005c82" fill="#005c82"/><path d="m303.921875 128.007812v24c0 4.417969 3.582031 8 8 8s8-3.582031 8-8v-24c0-4.417968-3.582031-8-8-8s-8 3.582032-8 8zm0 0" data-original="#000000" class="active-path" data-old_color="#005c82" fill="#005c82"/><path d="m335.921875 128.007812c2.878906-.003906 5.535156-1.558593 6.953125-4.066406 1.417969-2.507812 1.378906-5.585937-.105469-8.054687l-24-40c-1.550781-2.261719-4.117187-3.613281-6.855469-3.613281-2.742187 0-5.308593 1.351562-6.859374 3.613281l-24 40c-1.53125 2.453125-1.625 5.542969-.238282 8.078125 1.386719 2.539062 4.039063 4.132812 6.929688 4.164062 2.890625.035156 5.578125-1.496094 7.023437-4.003906l17.152344-28.566406 17.140625 28.566406c1.449219 2.410156 4.050781 3.882812 6.859375 3.882812zm0 0" data-original="#000000" class="active-path" data-old_color="#005c82" fill="#005c82"/><path d="m159.921875 104.007812v-24c0-4.417968-3.582031-8-8-8s-8 3.582032-8 8v24c0 4.417969 3.582031 8 8 8s8-3.582031 8-8zm0 0" data-original="#000000" class="active-path" data-old_color="#005c82" fill="#005c82"/><path d="m123.800781 105.152344c-3.785156 2.273437-5.011719 7.1875-2.738281 10.972656l24 40c1.449219 2.40625 4.050781 3.878906 6.859375 3.878906 2.804687 0 5.40625-1.472656 6.855469-3.878906l24-40c2.179687-3.777344.929687-8.605469-2.8125-10.851562-3.738282-2.246094-8.585938-1.085938-10.902344 2.613281l-17.140625 28.566406-17.144531-28.566406c-2.277344-3.785157-7.191406-5.011719-10.976563-2.734375zm0 0" data-original="#000000" class="active-path" data-old_color="#005c82" fill="#005c82"/></g> </svg>
