<?xml version="1.0"?>
<svg xmlns="http://www.w3.org/2000/svg" xmlns:xlink="http://www.w3.org/1999/xlink" version="1.1" id="Layer_1" x="0px" y="0px" viewBox="0 0 512 512" style="enable-background:new 0 0 512 512;" xml:space="preserve" width="512px" height="512px" class=""><g><g>
	<g>
		<path d="M486.881,376.251h-17.637v-51.841c0-9.136-7.432-16.568-16.568-16.568h-43.29v-43.29    c0-13.851-11.268-25.119-25.119-25.119H272.494l0.068-56.256c4.238-2.299,14.573-6.324,35.03-6.324    c33.546,0,74.277,9.873,74.685,9.973c2.391,0.586,4.919,0.04,6.856-1.48c1.937-1.52,3.068-3.845,3.068-6.306V18.22    c0-3.693-2.523-6.907-6.109-7.786C384.354,10.008,343.106,0,307.592,0c-23.354,0-36.379,4.67-43.083,8.434    C257.805,4.67,244.781,0,221.427,0c-35.514,0-76.762,10.008-78.5,10.433c-3.586,0.879-6.109,4.094-6.109,7.786v160.82    c0,2.462,1.132,4.788,3.069,6.308c1.937,1.519,4.464,2.064,6.857,1.479c0.407-0.099,41.086-9.973,74.684-9.973    c20.573,0,30.909,4.069,35.102,6.362l-0.069,56.216H144.835c-13.851,0-25.119,11.268-25.119,25.119v43.29H33.67    c-13.851,0-25.119,11.268-25.119,25.119v119.716c0,13.851,11.268,25.119,25.119,25.119h68.944v18.171H84.977    c-4.427,0-8.017,3.589-8.017,8.017c0,4.427,3.589,8.017,8.017,8.017h85.511c4.427,0,8.017-3.589,8.017-8.017    c0-4.427-3.589-8.017-8.017-8.017h-17.637v-18.171h68.944c13.851,0,25.119-11.268,25.119-25.119V332.96    c0-13.851-11.268-25.119-25.119-25.119h-86.046v-43.29c0-5.01,4.076-9.086,9.086-9.086h239.432c5.01,0,9.086,4.076,9.086,9.086    v43.29h-43.29c-9.136,0-16.568,7.432-16.568,16.568v171.023c0,9.136,7.432,16.568,16.568,16.568h136.818    c9.136,0,16.568-7.432,16.568-16.568V392.818C503.449,383.683,496.017,376.251,486.881,376.251z M136.818,495.967h-18.171v-18.171    h18.171V495.967z M230.881,452.676c0,5.01-4.076,9.086-9.086,9.086H33.67c-5.01,0-9.086-4.076-9.086-9.086v-9.086h206.296V452.676    z M221.795,323.875c5.01,0,9.086,4.076,9.086,9.086v94.597H24.585V332.96c0-5.01,4.076-9.086,9.086-9.086H221.795z     M221.426,160.819c-25.472,0-53.897,5.149-68.574,8.218V24.623c12.657-2.74,42.714-8.59,68.575-8.59    c26.758,0,36.212,6.888,37.334,7.791c1.505,1.816,3.374,2.869,5.748,2.869c2.375,0,4.244-1.053,5.749-2.869    c1.121-0.902,10.575-7.791,37.333-7.791c25.826,0,55.91,5.852,68.575,8.591v144.413c-14.677-3.069-43.102-8.218-68.575-8.218    c-23.354,0-36.379,4.67-43.083,8.434C257.804,165.489,244.779,160.819,221.426,160.819z M349.528,324.409    c0-0.295,0.239-0.534,0.534-0.534h102.614c0.295,0,0.534,0.239,0.534,0.534v17.637H349.528V324.409z M350.063,495.967    c-0.295,0-0.534-0.239-0.534-0.534v-17.637h69.478v17.637c0,0.181,0.021,0.356,0.027,0.534H350.063z M419.006,392.818v68.944    h-69.478V358.079h103.683v18.171h-17.637C426.438,376.251,419.006,383.683,419.006,392.818z M487.415,495.432    c0,0.295-0.239,0.534-0.534,0.534h-51.307c-0.295,0-0.534-0.239-0.534-0.534v-17.637h52.376V495.432z M487.415,461.762H435.04    v-68.944c0-0.295,0.239-0.534,0.534-0.534h51.307c0.295,0,0.534,0.239,0.534,0.534V461.762z" data-original="#000000" class="active-path" data-old_color="#005c82" fill="#005c82"/>
	</g>
</g><g>
	<g>
		<path d="M351.177,46.486c-16.375-2.476-31.041-3.73-43.585-3.73c-10.485,0-19.86,0.959-27.866,2.851    c-4.309,1.018-6.977,5.336-5.959,9.645c1.02,4.309,5.334,6.978,9.646,5.959c6.8-1.607,14.935-2.421,24.179-2.421    c11.746,0,25.604,1.195,41.189,3.551c0.406,0.061,0.809,0.091,1.208,0.091c3.898,0,7.317-2.848,7.916-6.82    C358.567,51.233,355.555,47.148,351.177,46.486z" data-original="#000000" class="active-path" data-old_color="#005c82" fill="#005c82"/>
	</g>
</g><g>
	<g>
		<path d="M351.177,114.895c-16.374-2.476-31.04-3.73-43.585-3.73c-10.484,0-19.859,0.959-27.866,2.851    c-4.309,1.018-6.977,5.336-5.959,9.645c1.02,4.309,5.334,6.977,9.646,5.959c6.8-1.607,14.936-2.421,24.179-2.421    c11.747,0,25.605,1.195,41.189,3.551c0.406,0.061,0.809,0.091,1.208,0.091c3.897,0,7.317-2.848,7.916-6.82    C358.568,119.643,355.555,115.558,351.177,114.895z" data-original="#000000" class="active-path" data-old_color="#005c82" fill="#005c82"/>
	</g>
</g><g>
	<g>
		<path d="M298.065,84.986c-0.59-4.388-4.621-7.469-9.014-6.877c-3.27,0.439-6.407,1.012-9.325,1.702    c-4.309,1.018-6.977,5.336-5.959,9.645c0.872,3.691,4.162,6.177,7.795,6.177c0.61,0,1.23-0.071,1.849-0.217    c2.408-0.569,5.025-1.045,7.776-1.415C295.576,93.41,298.654,89.374,298.065,84.986z" data-original="#000000" class="active-path" data-old_color="#005c82" fill="#005c82"/>
	</g>
</g><g>
	<g>
		<path d="M351.177,80.691c-9.272-1.401-18.103-2.423-26.249-3.036c-4.425-0.333-8.263,2.978-8.596,7.394    c-0.332,4.415,2.978,8.263,7.393,8.595c7.748,0.583,16.178,1.558,25.054,2.9c0.406,0.061,0.809,0.091,1.208,0.091    c3.898,0,7.317-2.848,7.916-6.82C358.568,85.438,355.556,81.352,351.177,80.691z" data-original="#000000" class="active-path" data-old_color="#005c82" fill="#005c82"/>
	</g>
</g><g>
	<g>
		<path d="M249.209,45.607c-8.006-1.892-17.381-2.851-27.865-2.851c-12.546,0-27.21,1.255-43.586,3.73    c-4.378,0.662-7.39,4.747-6.728,9.125c0.601,3.972,4.018,6.82,7.916,6.82c0.399,0,0.802-0.03,1.208-0.091    c15.586-2.356,29.444-3.551,41.19-3.551c9.244,0,17.379,0.815,24.179,2.421c4.308,1.019,8.627-1.65,9.645-5.959    C256.187,50.942,253.519,46.624,249.209,45.607z" data-original="#000000" class="active-path" data-old_color="#005c82" fill="#005c82"/>
	</g>
</g><g>
	<g>
		<path d="M249.209,114.016c-8.007-1.892-17.382-2.851-27.865-2.851c-12.547,0-27.211,1.255-43.586,3.73    c-4.378,0.662-7.39,4.747-6.728,9.125c0.601,3.972,4.018,6.82,7.916,6.82c0.399,0,0.802-0.03,1.208-0.091    c15.584-2.356,29.443-3.551,41.19-3.551c9.243,0,17.378,0.815,24.179,2.421c4.308,1.018,8.627-1.65,9.645-5.959    C256.187,119.352,253.519,115.033,249.209,114.016z" data-original="#000000" class="active-path" data-old_color="#005c82" fill="#005c82"/>
	</g>
</g><g>
	<g>
		<path d="M249.21,79.811c-2.917-0.689-6.056-1.261-9.329-1.702c-4.388-0.592-8.423,2.49-9.013,6.877    c-0.59,4.388,2.489,8.423,6.877,9.013c2.753,0.37,5.371,0.847,7.778,1.415c0.62,0.146,1.24,0.217,1.85,0.217    c3.632,0,6.923-2.486,7.794-6.175C256.187,85.148,253.519,80.83,249.21,79.811z" data-original="#000000" class="active-path" data-old_color="#005c82" fill="#005c82"/>
	</g>
</g><g>
	<g>
		<path d="M212.603,85.05c-0.331-4.415-4.177-7.721-8.596-7.394c-8.146,0.612-16.977,1.634-26.249,3.036    c-4.378,0.662-7.39,4.747-6.728,9.125c0.6,3.971,4.018,6.818,7.916,6.818c0.399,0,0.802-0.03,1.208-0.091    c8.877-1.343,17.306-2.317,25.055-2.9C209.624,93.312,212.934,89.464,212.603,85.05z" data-original="#000000" class="active-path" data-old_color="#005c82" fill="#005c82"/>
	</g>
</g></g> </svg>
