<svg xmlns="http://www.w3.org/2000/svg" viewBox="0 0 476.8 446.39">
  <defs>
    <style>
      .a {
        fill: #00ffff;
      }

      .b {
        fill: #005c82;
        <!-- opacity: 0.6; -->
      }

      .c {
        fill: #9342c7;
      }

      .d {
        fill: #fff;
      }
    </style>
  </defs>
  <title>dte-2018</title>
  <polygon class="a" points="328.61 0 90.21 33.47 0 256.67 148.19 446.39 386.58 412.92 476.8 189.72 328.61 0"/>
  <polygon class="b" points="328.61 0 103.48 31.61 90.45 35.57 45.51 242.66 202.39 385.13 404.21 320.5 442.2 145.43 328.61 0"/>
  <polygon class="c" points="365.11 250.45 350.31 74.72 223.16 14.81 103.48 31.61 90.45 35.57 45.51 242.66 133.98 323 220.32 351.14 365.11 250.45"/>
  <g>
    <path class="d" d="M467.35,512.54q0-19.69,8.79-31.37T500,469.49q17.11,0,26.09,13.52V435.59h9.3v120h-8.75l-.39-11.25q-9,12.81-26.41,12.81-14.61,0-23.55-11.76t-8.95-31.76Zm9.45,1.64q0,16.17,6.48,25.51T501.56,549q17.26,0,24.53-15.23V494.1q-7.27-16.48-24.37-16.48-11.8,0-18.36,9.26T476.8,514.18Z" transform="translate(-377.83 -330.06)"/>
    <path class="d" d="M574.53,449.42v21.64H592v7.66h-17.5V535.1q0,7,2.54,10.48t8.48,3.44a58.06,58.06,0,0,0,7.58-.78l.39,7.59a30.6,30.6,0,0,1-10,1.32q-9.61,0-14-5.59t-4.37-16.45V478.71H549.61v-7.66h15.55V449.42Z" transform="translate(-377.83 -330.06)"/>
    <path class="d" d="M644.14,557.15a36.68,36.68,0,0,1-19.49-5.31A36.19,36.19,0,0,1,611.1,537a46.14,46.14,0,0,1-4.84-21.29v-3.36a49.73,49.73,0,0,1,4.73-22,37.61,37.61,0,0,1,13.16-15.35,32.48,32.48,0,0,1,18.28-5.59q15.39,0,24.41,10.51t9,28.71v5.23H615.55v1.8q0,14.38,8.24,23.95a26.22,26.22,0,0,0,20.74,9.57,30.44,30.44,0,0,0,13.24-2.73,29.35,29.35,0,0,0,10.43-8.75l5.86,4.45Q663.75,557.15,644.14,557.15Zm-1.72-79.69a23.37,23.37,0,0,0-17.77,7.73q-7.23,7.73-8.79,20.78h50.7v-1q-.39-12.19-7-19.84A21.55,21.55,0,0,0,642.42,477.46Z" transform="translate(-377.83 -330.06)"/>
  </g>
  <g>
    <path class="d" d="M597.53,600.75a6.17,6.17,0,0,0,4.09-1.38,4.85,4.85,0,0,0,1.79-3.56h2.25a6.62,6.62,0,0,1-1.21,3.53,7.58,7.58,0,0,1-3,2.49,8.92,8.92,0,0,1-4,.9,8.16,8.16,0,0,1-6.59-2.89,11.69,11.69,0,0,1-2.43-7.77v-.7a13.21,13.21,0,0,1,1.09-5.53,8.42,8.42,0,0,1,3.13-3.71,8.65,8.65,0,0,1,4.78-1.31,8.15,8.15,0,0,1,5.73,2.07,7.55,7.55,0,0,1,2.41,5.45H603.4a5.66,5.66,0,0,0-5.9-5.53,5.83,5.83,0,0,0-4.91,2.29,10.34,10.34,0,0,0-1.75,6.41v.68a10.11,10.11,0,0,0,1.75,6.31A5.87,5.87,0,0,0,597.53,600.75Z" transform="translate(-377.83 -330.06)"/>
    <path class="d" d="M609,591.45a12.43,12.43,0,0,1,1.18-5.49,8.88,8.88,0,0,1,8.23-5.16,8.69,8.69,0,0,1,6.84,3,11.4,11.4,0,0,1,2.62,7.84v.49a12.55,12.55,0,0,1-1.18,5.52,8.83,8.83,0,0,1-3.33,3.78,9.13,9.13,0,0,1-4.9,1.33,8.7,8.7,0,0,1-6.83-3,11.38,11.38,0,0,1-2.63-7.84Zm2.34.64a9.59,9.59,0,0,0,2,6.22,6.64,6.64,0,0,0,10.27,0,9.9,9.9,0,0,0,2-6.42v-.45a10.76,10.76,0,0,0-.9-4.43,7.22,7.22,0,0,0-2.52-3.12,6.44,6.44,0,0,0-3.71-1.1,6.25,6.25,0,0,0-5.1,2.45,9.92,9.92,0,0,0-2,6.42Z" transform="translate(-377.83 -330.06)"/>
    <path class="d" d="M634.95,581.2l.08,3.61a8.39,8.39,0,0,1,3-3,7.71,7.71,0,0,1,3.93-1,6.34,6.34,0,0,1,5.06,1.91q1.66,1.91,1.68,5.74v13.87h-2.32V588.45a6.45,6.45,0,0,0-1.2-4.22,4.7,4.7,0,0,0-3.78-1.39,5.91,5.91,0,0,0-3.84,1.36,8,8,0,0,0-2.47,3.66v14.47h-2.32V581.2Z" transform="translate(-377.83 -330.06)"/>
    <path class="d" d="M656.37,602.33V583.11h-3.5V581.2h3.5v-2.56a7,7,0,0,1,1.65-5,6,6,0,0,1,4.6-1.74,9,9,0,0,1,2.48.33l-.18,1.94a9.11,9.11,0,0,0-2.13-.23,3.82,3.82,0,0,0-3,1.2,5,5,0,0,0-1.07,3.42v2.62h5v1.91h-5v19.22Z" transform="translate(-377.83 -330.06)"/>
    <path class="d" d="M675.65,602.72a9.17,9.17,0,0,1-4.87-1.33,9.06,9.06,0,0,1-3.39-3.7,11.55,11.55,0,0,1-1.21-5.32v-.84a12.45,12.45,0,0,1,1.18-5.49,9.4,9.4,0,0,1,3.29-3.84,8.12,8.12,0,0,1,4.57-1.4,7.63,7.63,0,0,1,6.1,2.63,10.65,10.65,0,0,1,2.26,7.18v1.31H668.5v.45a8.85,8.85,0,0,0,2.06,6,6.56,6.56,0,0,0,5.19,2.39,7.61,7.61,0,0,0,3.31-.68,7.34,7.34,0,0,0,2.61-2.19l1.46,1.11A8.53,8.53,0,0,1,675.65,602.72Zm-.43-19.92a5.84,5.84,0,0,0-4.44,1.93,8.94,8.94,0,0,0-2.2,5.2h12.68v-.25a7.75,7.75,0,0,0-1.74-5A5.39,5.39,0,0,0,675.22,582.8Z" transform="translate(-377.83 -330.06)"/>
    <path class="d" d="M697.9,583.19a8.75,8.75,0,0,0-1.58-.14,5.71,5.71,0,0,0-3.7,1.22,6.69,6.69,0,0,0-2.16,3.54v14.51h-2.32V581.2h2.29l0,3.36a6.22,6.22,0,0,1,6-3.75,3.85,3.85,0,0,1,1.54.25Z" transform="translate(-377.83 -330.06)"/>
    <path class="d" d="M709.4,602.72a9.17,9.17,0,0,1-4.87-1.33,9.06,9.06,0,0,1-3.39-3.7,11.55,11.55,0,0,1-1.21-5.32v-.84a12.45,12.45,0,0,1,1.18-5.49,9.4,9.4,0,0,1,3.29-3.84,8.12,8.12,0,0,1,4.57-1.4,7.63,7.63,0,0,1,6.1,2.63,10.65,10.65,0,0,1,2.26,7.18v1.31H702.25v.45a8.85,8.85,0,0,0,2.06,6,6.56,6.56,0,0,0,5.19,2.39,7.61,7.61,0,0,0,3.31-.68,7.34,7.34,0,0,0,2.61-2.19l1.46,1.11A8.52,8.52,0,0,1,709.4,602.72ZM709,582.8a5.84,5.84,0,0,0-4.44,1.93,8.94,8.94,0,0,0-2.2,5.2H715v-.25a7.75,7.75,0,0,0-1.74-5A5.39,5.39,0,0,0,709,582.8Z" transform="translate(-377.83 -330.06)"/>
    <path class="d" d="M724.11,581.2l.08,3.61a8.39,8.39,0,0,1,3-3,7.71,7.71,0,0,1,3.93-1,6.34,6.34,0,0,1,5.06,1.91q1.66,1.91,1.68,5.74v13.87h-2.32V588.45a6.45,6.45,0,0,0-1.2-4.22,4.71,4.71,0,0,0-3.78-1.39,5.91,5.91,0,0,0-3.84,1.36,8,8,0,0,0-2.47,3.66v14.47h-2.32V581.2Z" transform="translate(-377.83 -330.06)"/>
    <path class="d" d="M751.67,600.75a6.17,6.17,0,0,0,4.09-1.38,4.84,4.84,0,0,0,1.79-3.56h2.25a6.62,6.62,0,0,1-1.21,3.53,7.58,7.58,0,0,1-3,2.49,8.92,8.92,0,0,1-4,.9,8.16,8.16,0,0,1-6.59-2.89,11.69,11.69,0,0,1-2.43-7.77v-.7a13.21,13.21,0,0,1,1.09-5.53,8.43,8.43,0,0,1,3.13-3.71,8.65,8.65,0,0,1,4.78-1.31,8.15,8.15,0,0,1,5.73,2.07,7.55,7.55,0,0,1,2.41,5.45h-2.25a5.66,5.66,0,0,0-5.9-5.53,5.83,5.83,0,0,0-4.91,2.29,10.34,10.34,0,0,0-1.75,6.41v.68a10.11,10.11,0,0,0,1.75,6.31A5.87,5.87,0,0,0,751.67,600.75Z" transform="translate(-377.83 -330.06)"/>
    <path class="d" d="M772.64,602.72a9.17,9.17,0,0,1-4.87-1.33,9.05,9.05,0,0,1-3.39-3.7,11.54,11.54,0,0,1-1.21-5.32v-.84a12.43,12.43,0,0,1,1.18-5.49,9.4,9.4,0,0,1,3.29-3.84,8.12,8.12,0,0,1,4.57-1.4,7.63,7.63,0,0,1,6.1,2.63,10.65,10.65,0,0,1,2.26,7.18v1.31H765.49v.45a8.85,8.85,0,0,0,2.06,6,6.56,6.56,0,0,0,5.19,2.39,7.61,7.61,0,0,0,3.31-.68,7.34,7.34,0,0,0,2.61-2.19l1.46,1.11A8.53,8.53,0,0,1,772.64,602.72Zm-.43-19.92a5.84,5.84,0,0,0-4.44,1.93,8.94,8.94,0,0,0-2.2,5.2h12.68v-.25a7.76,7.76,0,0,0-1.74-5A5.39,5.39,0,0,0,772.21,582.8Z" transform="translate(-377.83 -330.06)"/>
  </g>
</svg>
