<svg xmlns="http://www.w3.org/2000/svg" xmlns:xlink="http://www.w3.org/1999/xlink" viewBox="0 0 576 352"><defs><style>.cls-1{fill:url(#radial-gradient);}.cls-2{isolation:isolate;}.cls-3{clip-path:url(#clip-path);}.cls-4{opacity:0.3;}.cls-5,.cls-7{mix-blend-mode:overlay;}.cls-6{fill:#00cfed;}.cls-7{opacity:0.5;}.cls-8{fill:#005c82;mix-blend-mode:color;}</style><radialGradient id="radial-gradient" cx="279.72" cy="121.27" r="386.25" gradientUnits="userSpaceOnUse"><stop offset="0" stop-color="#02567c"/><stop offset="0.11" stop-color="#024d6f"/><stop offset="0.5" stop-color="#013048"/><stop offset="0.81" stop-color="#001e30"/><stop offset="1" stop-color="#001827"/></radialGradient><clipPath id="clip-path" transform="translate(0 36.87)"><rect class="cls-1" width="576" height="288"/></clipPath></defs><title>map_bckground</title><g class="cls-2"><g id="Layer_1" data-name="Layer 1"><rect class="cls-1" y="36.87" width="576" height="288"/><g class="cls-3"><g class="cls-4"><g class="cls-5"><polygon class="cls-6" points="169.73 0 169.73 19.45 203.18 38.77 236.64 19.45 236.64 0 169.73 0"/><polygon class="cls-6" points="201.43 79.72 201.43 41.09 167.98 21.77 134.52 41.09 134.52 79.72 167.98 99.03 201.43 79.72"/><polygon class="cls-6" points="271.6 79.72 271.6 41.09 238.14 21.77 204.69 41.09 204.69 79.72 238.14 99.03 271.6 79.72"/><polygon class="cls-6" points="341.76 79.72 341.76 41.09 308.3 21.77 274.85 41.09 274.85 79.72 308.3 99.03 341.76 79.72"/><polygon class="cls-6" points="236.64 140.39 236.64 101.76 203.18 82.45 169.73 101.76 169.73 140.39 203.18 159.71 236.64 140.39"/><polygon class="cls-6" points="306.8 140.39 306.8 101.76 273.35 82.45 239.89 101.76 239.89 140.39 273.35 159.71 306.8 140.39"/><polygon class="cls-6" points="376.96 140.39 376.96 101.76 343.51 82.45 310.05 101.76 310.05 140.39 343.51 159.71 376.96 140.39"/></g><g class="cls-5"><polygon class="cls-6" points="155.39 0 155.39 46.98 218.16 83.22 280.93 46.98 280.93 0 155.39 0"/><polygon class="cls-6" points="287.04 0 287.04 46.98 349.81 83.22 412.58 46.98 412.58 0 287.04 0"/><polygon class="cls-6" points="215.34 160.82 215.34 88.34 152.56 52.1 89.79 88.34 89.79 160.82 152.56 197.07 215.34 160.82"/><polygon class="cls-6" points="346.99 160.82 346.99 88.34 284.22 52.1 221.44 88.34 221.44 160.82 284.22 197.07 346.99 160.82"/><polygon class="cls-6" points="478.64 160.82 478.64 88.34 415.87 52.1 353.09 88.34 353.09 160.82 415.87 197.07 478.64 160.82"/><polygon class="cls-6" points="149.28 273.9 149.28 201.42 86.51 165.18 23.74 201.42 23.74 273.9 86.51 310.15 149.28 273.9"/><polygon class="cls-6" points="280.93 273.9 280.93 201.42 218.16 165.18 155.39 201.42 155.39 273.9 218.16 310.15 280.93 273.9"/><polygon class="cls-6" points="412.58 273.9 412.58 201.42 349.81 165.18 287.04 201.42 287.04 273.9 349.81 310.15 412.58 273.9"/><polygon class="cls-6" points="215.34 352 215.34 315.26 152.57 279.02 89.79 315.26 89.79 352 215.34 352"/></g><g class="cls-7"><polygon class="cls-6" points="197.55 0 197.55 37.72 155.96 61.73 114.37 37.72 114.37 0 112.89 0 112.89 38.57 155.96 63.43 199.02 38.57 199.02 0 197.55 0"/><polygon class="cls-6" points="287.86 0 287.86 37.72 246.27 61.73 204.69 37.72 204.69 0 203.21 0 203.21 38.57 246.27 63.43 289.34 38.57 289.34 0 287.86 0"/><polygon class="cls-6" points="378.18 0 378.18 37.72 336.59 61.73 295 37.72 295 0 293.53 0 293.53 38.57 336.59 63.43 379.65 38.57 379.65 0 378.18 0"/><path class="cls-6" d="M201.27,6.91l41.59,24v48l-41.59,24-41.59-24v-48l41.59-24m0-1.71L158.21,30.07V79.8l43.06,24.86L244.34,79.8V30.07L201.27,5.21Z" transform="translate(0 36.87)"/><path class="cls-6" d="M156,84.49l41.59,24v48l-41.59,24-41.59-24v-48l41.59-24m0-1.71-43.06,24.86v49.73L156,182.24,199,157.37V107.65L156,82.78Z" transform="translate(0 36.87)"/><path class="cls-6" d="M246.27,84.49l41.59,24v48l-41.59,24-41.59-24v-48l41.59-24m0-1.71-43.06,24.86v49.73l43.06,24.86,43.06-24.86V107.65L246.27,82.78Z" transform="translate(0 36.87)"/><path class="cls-6" d="M201.27,162.59l41.59,24v48l-41.59,24-41.59-24v-48l41.59-24m0-1.71-43.06,24.86v49.73l43.06,24.86,43.06-24.86V185.75l-43.06-24.86Z" transform="translate(0 36.87)"/><polygon class="cls-6" points="119.45 352 114.37 349.07 114.37 301.05 155.96 277.04 197.55 301.05 197.55 349.07 192.47 352 195.42 352 199.02 349.92 199.02 300.19 155.96 275.33 112.89 300.19 112.89 349.92 116.5 352 119.45 352"/><polygon class="cls-6" points="209.77 352 204.69 349.07 204.69 301.05 246.27 277.04 287.86 301.05 287.86 349.07 282.78 352 285.74 352 289.34 349.92 289.34 300.19 246.27 275.33 203.21 300.19 203.21 349.92 206.81 352 209.77 352"/><polygon class="cls-6" points="300.08 352 295 349.07 295 301.05 336.59 277.04 378.18 301.05 378.18 349.07 373.1 352 376.05 352 379.65 349.92 379.65 300.19 336.59 275.33 293.53 300.19 293.53 349.92 297.13 352 300.08 352"/></g></g><g class="cls-5"><polygon class="cls-6" points="343.54 0 347.32 2.19 351.11 0 343.54 0"/><polygon class="cls-6" points="391.04 0 394.82 2.19 398.61 0 391.04 0"/><polygon class="cls-6" points="438.54 0 442.32 2.19 446.11 0 438.54 0"/><polygon class="cls-6" points="402.99 0 396.01 4.03 396.01 30.18 418.66 43.26 441.31 30.18 441.31 4.03 434.32 0 402.99 0"/><polygon class="cls-6" points="450.49 0 443.51 4.03 443.51 30.18 466.16 43.26 488.81 30.18 488.81 4.03 481.82 0 450.49 0"/><polygon class="cls-6" points="417.47 70.98 417.47 44.83 394.82 31.75 372.18 44.83 372.18 70.98 394.82 84.06 417.47 70.98"/><polygon class="cls-6" points="464.97 70.98 464.97 44.83 442.32 31.75 419.68 44.83 419.68 70.98 442.32 84.06 464.97 70.98"/><polygon class="cls-6" points="441.31 112.06 441.31 85.91 418.66 72.83 396.01 85.91 396.01 112.06 418.66 125.14 441.31 112.06"/><polygon class="cls-6" points="488.81 112.06 488.81 85.91 466.16 72.83 443.51 85.91 443.51 112.06 466.16 125.14 488.81 112.06"/><polygon class="cls-6" points="417.47 152.86 417.47 126.71 394.82 113.63 372.18 126.71 372.18 152.86 394.82 165.94 417.47 152.86"/><polygon class="cls-6" points="464.97 152.86 464.97 126.71 442.32 113.63 419.68 126.71 419.68 152.86 442.32 165.94 464.97 152.86"/><polygon class="cls-6" points="393.81 193.93 393.81 167.78 371.16 154.71 348.51 167.78 348.51 193.93 371.16 207.01 393.81 193.93"/><polygon class="cls-6" points="441.31 193.93 441.31 167.78 418.66 154.71 396.01 167.78 396.01 193.93 418.66 207.01 441.31 193.93"/><polygon class="cls-6" points="488.81 193.93 488.81 167.78 466.16 154.71 443.51 167.78 443.51 193.93 466.16 207.01 488.81 193.93"/><polygon class="cls-6" points="369.97 234.73 369.97 208.58 347.32 195.5 324.68 208.58 324.68 234.73 347.32 247.81 369.97 234.73"/><polygon class="cls-6" points="417.47 234.73 417.47 208.58 394.82 195.5 372.18 208.58 372.18 234.73 394.82 247.81 417.47 234.73"/><polygon class="cls-6" points="464.97 234.73 464.97 208.58 442.32 195.5 419.68 208.58 419.68 234.73 442.32 247.81 464.97 234.73"/><polygon class="cls-6" points="393.81 275.81 393.81 249.66 371.16 236.58 348.51 249.66 348.51 275.81 371.16 288.88 393.81 275.81"/><polygon class="cls-6" points="369.97 316.61 369.97 290.46 347.32 277.38 324.68 290.46 324.68 316.61 347.32 329.69 369.97 316.61"/><polygon class="cls-6" points="417.47 316.61 417.47 290.46 394.82 277.38 372.18 290.46 372.18 316.61 394.82 329.69 417.47 316.61"/><polygon class="cls-6" points="393.81 352 393.81 331.53 371.16 318.45 348.51 331.53 348.51 352 393.81 352"/></g><g class="cls-5"><polygon class="cls-6" points="307.36 0 336.89 17.05 366.43 0 307.36 0"/><polygon class="cls-6" points="396.48 0 426.02 17.05 455.55 0 396.48 0"/><polygon class="cls-6" points="485.61 0 515.14 17.05 544.68 0 485.61 0"/><polygon class="cls-6" points="284.32 0 249.68 20 249.68 69.07 292.17 93.61 334.67 69.07 334.67 20 300.03 0 284.32 0"/><polygon class="cls-6" points="373.44 0 338.8 20 338.8 69.07 381.3 93.61 423.79 69.07 423.79 20 389.15 0 373.44 0"/><polygon class="cls-6" points="462.57 0 427.93 20 427.93 69.07 470.42 93.61 512.92 69.07 512.92 20 478.28 0 462.57 0"/><polygon class="cls-6" points="468.51 146.14 468.51 97.07 426.02 72.53 383.52 97.07 383.52 146.14 426.02 170.68 468.51 146.14"/><polygon class="cls-6" points="557.64 146.14 557.64 97.07 515.14 72.53 472.65 97.07 472.65 146.14 515.14 170.68 557.64 146.14"/><polygon class="cls-6" points="423.79 222.7 423.79 173.63 381.3 149.09 338.8 173.63 338.8 222.7 381.3 247.23 423.79 222.7"/><polygon class="cls-6" points="512.92 222.7 512.92 173.63 470.42 149.09 427.93 173.63 427.93 222.7 470.42 247.23 512.92 222.7"/><polygon class="cls-6" points="468.51 299.77 468.51 250.69 426.02 226.16 383.52 250.69 383.52 299.77 426.02 324.3 468.51 299.77"/><polygon class="cls-6" points="557.64 299.77 557.64 250.69 515.14 226.16 472.65 250.69 472.65 299.77 515.14 324.3 557.64 299.77"/><polygon class="cls-6" points="423.79 352 423.79 327.25 381.3 302.71 338.8 327.25 338.8 352 423.79 352"/><polygon class="cls-6" points="512.92 352 512.92 327.25 470.42 302.71 427.93 327.25 427.93 352 512.92 352"/></g><g class="cls-7"><polygon class="cls-6" points="398.02 0 398.02 1.36 369.87 17.61 341.71 1.36 341.71 0 340.71 0 340.71 1.94 369.87 18.77 399.02 1.94 399.02 0 398.02 0"/><polygon class="cls-6" points="459.16 0 459.16 1.36 431.01 17.61 402.86 1.36 402.86 0 401.86 0 401.86 1.94 431.01 18.77 460.16 1.94 460.16 0 459.16 0"/><polygon class="cls-6" points="520.31 0 520.31 1.36 492.15 17.61 464 1.36 464 0 463 0 463 1.94 492.15 18.77 521.31 1.94 521.31 0 520.31 0"/><path class="cls-6" d="M339.19-31.76l28.15,16.25V17L339.19,33.26,311,17V-15.51l28.15-16.25m0-1.15L310-16.08V17.58l29.15,16.83,29.15-16.83V-16.08L339.19-32.92Z" transform="translate(0 36.87)"/><path class="cls-6" d="M400.33-31.76l28.15,16.25V17L400.33,33.26,372.18,17V-15.51l28.15-16.25m0-1.15L371.18-16.08V17.58l29.15,16.83,29.15-16.83V-16.08L400.33-32.92Z" transform="translate(0 36.87)"/><path class="cls-6" d="M461.47-31.76l28.15,16.25V17L461.47,33.26,433.32,17V-15.51l28.15-16.25m0-1.15L432.32-16.08V17.58l29.15,16.83,29.15-16.83V-16.08L461.47-32.92Z" transform="translate(0 36.87)"/><path class="cls-6" d="M431,21.11l28.15,16.25V69.88L431,86.13,402.86,69.88V37.37L431,21.11M431,20,401.86,36.79V70.45L431,87.28l29.15-16.83V36.79L431,20Z" transform="translate(0 36.87)"/><path class="cls-6" d="M492.15,21.11l28.15,16.25V69.88L492.15,86.13,464,69.88V37.37l28.15-16.25m0-1.15L463,36.79V70.45l29.15,16.83,29.15-16.83V36.79L492.15,20Z" transform="translate(0 36.87)"/><path class="cls-6" d="M400.33,73.63l28.15,16.25v32.51l-28.15,16.25-28.15-16.25V89.88l28.15-16.25m0-1.15L371.18,89.31V123l29.15,16.83L429.48,123V89.31L400.33,72.48Z" transform="translate(0 36.87)"/><path class="cls-6" d="M461.47,73.63l28.15,16.25v32.51l-28.15,16.25-28.15-16.25V89.88l28.15-16.25m0-1.15L432.32,89.31V123l29.15,16.83L490.63,123V89.31L461.47,72.48Z" transform="translate(0 36.87)"/><path class="cls-6" d="M431,126.5l28.15,16.25v32.51L431,191.52l-28.15-16.25V142.76L431,126.5m0-1.15-29.15,16.83v33.66L431,192.68l29.15-16.83V142.18L431,125.35Z" transform="translate(0 36.87)"/><path class="cls-6" d="M492.15,126.5l28.15,16.25v32.51l-28.15,16.25L464,175.27V142.76l28.15-16.25m0-1.15L463,142.18v33.66l29.15,16.83,29.15-16.83V142.18l-29.15-16.83Z" transform="translate(0 36.87)"/><path class="cls-6" d="M400.33,179l28.15,16.25v32.51L400.33,244l-28.15-16.25V195.28L400.33,179m0-1.15L371.18,194.7v33.66l29.15,16.83,29.15-16.83V194.7l-29.15-16.83Z" transform="translate(0 36.87)"/><path class="cls-6" d="M461.47,179l28.15,16.25v32.51L461.47,244l-28.15-16.25V195.28L461.47,179m0-1.15L432.32,194.7v33.66l29.15,16.83,29.15-16.83V194.7l-29.15-16.83Z" transform="translate(0 36.87)"/><path class="cls-6" d="M369.87,231.89,398,248.15v32.51l-28.15,16.25-28.15-16.25V248.15l28.15-16.25m0-1.15-29.15,16.83v33.66l29.15,16.83L399,281.23V247.57l-29.15-16.83Z" transform="translate(0 36.87)"/><path class="cls-6" d="M431,231.89l28.15,16.25v32.51L431,296.91l-28.15-16.25V248.15L431,231.89m0-1.15-29.15,16.83v33.66L431,298.07l29.15-16.83V247.57L431,230.74Z" transform="translate(0 36.87)"/><path class="cls-6" d="M492.15,231.89l28.15,16.25v32.51l-28.15,16.25L464,280.66V248.15l28.15-16.25m0-1.15L463,247.57v33.66l29.15,16.83,29.15-16.83V247.57l-29.15-16.83Z" transform="translate(0 36.87)"/><polygon class="cls-6" points="311.04 352 311.04 337.54 339.19 321.28 367.34 337.54 367.34 352 368.34 352 368.34 336.96 339.19 320.13 310.04 336.96 310.04 352 311.04 352"/><polygon class="cls-6" points="372.18 352 372.18 337.54 400.33 321.28 428.49 337.54 428.49 352 429.49 352 429.49 336.96 400.33 320.13 371.18 336.96 371.18 352 372.18 352"/><polygon class="cls-6" points="433.32 352 433.32 337.54 461.47 321.28 489.63 337.54 489.63 352 490.63 352 490.63 336.96 461.47 320.13 432.32 336.96 432.32 352 433.32 352"/></g></g><rect class="cls-8" y="36.87" width="576" height="288"/></g></g></svg>