<?xml version="1.0"?>
<svg xmlns="http://www.w3.org/2000/svg" xmlns:xlink="http://www.w3.org/1999/xlink" version="1.1" id="Capa_1" x="0px" y="0px" viewBox="0 0 480 480" style="enable-background:new 0 0 480 480;" xml:space="preserve" width="512px" height="512px" class=""><g><g>
	<g>
		<path d="M472,432h-16v-24c0-4.418-3.582-8-8-8h-8V224h8c4.418,0,8-3.582,8-8v-32c0-4.418-3.582-8-8-8h-8v-24c0-4.418-3.582-8-8-8    h-14.4L248,74.624V48h56c4.418,0,8-3.582,8-8V8c0-4.418-3.582-8-8-8h-64c-4.418,0-8,3.582-8,8v66.624L62.4,144H48    c-4.418,0-8,3.582-8,8v24h-8c-4.418,0-8,3.582-8,8v32c0,4.418,3.582,8,8,8h8v176h-8c-4.418,0-8,3.582-8,8v24H8    c-4.418,0-8,3.582-8,8v32c0,4.418,3.582,8,8,8h464c4.418,0,8-3.582,8-8v-32C480,435.582,476.418,432,472,432z M248,16h48v16h-48    V16z M240,88.64L375.312,144H104.688L240,88.64z M56,160h368v16H56V160z M40,192h400v16H40V192z M424,224v176h-96V224H424z     M240,312c-30.911,0.04-55.96,25.089-56,56v32h-16V224h144v176h-16v-32C295.96,337.089,270.911,312.04,240,312z M280,368v32h-80    v-32c0-22.091,17.909-40,40-40C262.091,328,280,345.909,280,368z M152,224v176H56V224H152z M40,416h400v16H40V416z M464,464H16    v-16h448V464z" data-original="#000000" class="active-path" data-old_color="#005c82" fill="#005c82"/>
	</g>
</g><g>
	<g>
		<rect x="91.815" y="75.807" transform="matrix(0.9255 -0.3787 0.3787 0.9255 -20.7124 62.2861)" width="112.4" height="16" data-original="#000000" class="active-path" data-old_color="#005c82" fill="#005c82"/>
	</g>
</g><g>
	<g>
		<rect x="63.387" y="107.092" transform="matrix(0.9256 -0.3786 0.3786 0.9256 -38.2434 35.651)" width="16.328" height="16" data-original="#000000" class="active-path" data-old_color="#005c82" fill="#005c82"/>
	</g>
</g><g>
	<g>
		<rect x="248" y="368" width="16" height="16" data-original="#000000" class="active-path" data-old_color="#005c82" fill="#005c82"/>
	</g>
</g><g>
	<g>
		<rect x="216" y="368" width="16" height="16" data-original="#000000" class="active-path" data-old_color="#005c82" fill="#005c82"/>
	</g>
</g><g>
	<g>
		<rect x="80" y="248" width="16" height="16" data-original="#000000" class="active-path" data-old_color="#005c82" fill="#005c82"/>
	</g>
</g><g>
	<g>
		<rect x="112" y="248" width="16" height="16" data-original="#000000" class="active-path" data-old_color="#005c82" fill="#005c82"/>
	</g>
</g><g>
	<g>
		<rect x="80" y="280" width="16" height="16" data-original="#000000" class="active-path" data-old_color="#005c82" fill="#005c82"/>
	</g>
</g><g>
	<g>
		<rect x="112" y="280" width="16" height="16" data-original="#000000" class="active-path" data-old_color="#005c82" fill="#005c82"/>
	</g>
</g><g>
	<g>
		<rect x="200" y="248" width="16" height="16" data-original="#000000" class="active-path" data-old_color="#005c82" fill="#005c82"/>
	</g>
</g><g>
	<g>
		<rect x="232" y="248" width="16" height="16" data-original="#000000" class="active-path" data-old_color="#005c82" fill="#005c82"/>
	</g>
</g><g>
	<g>
		<rect x="264" y="248" width="16" height="16" data-original="#000000" class="active-path" data-old_color="#005c82" fill="#005c82"/>
	</g>
</g><g>
	<g>
		<rect x="200" y="280" width="16" height="16" data-original="#000000" class="active-path" data-old_color="#005c82" fill="#005c82"/>
	</g>
</g><g>
	<g>
		<rect x="232" y="280" width="16" height="16" data-original="#000000" class="active-path" data-old_color="#005c82" fill="#005c82"/>
	</g>
</g><g>
	<g>
		<rect x="264" y="280" width="16" height="16" data-original="#000000" class="active-path" data-old_color="#005c82" fill="#005c82"/>
	</g>
</g><g>
	<g>
		<rect x="80" y="328" width="16" height="16" data-original="#000000" class="active-path" data-old_color="#005c82" fill="#005c82"/>
	</g>
</g><g>
	<g>
		<rect x="112" y="328" width="16" height="16" data-original="#000000" class="active-path" data-old_color="#005c82" fill="#005c82"/>
	</g>
</g><g>
	<g>
		<rect x="80" y="360" width="16" height="16" data-original="#000000" class="active-path" data-old_color="#005c82" fill="#005c82"/>
	</g>
</g><g>
	<g>
		<rect x="112" y="360" width="16" height="16" data-original="#000000" class="active-path" data-old_color="#005c82" fill="#005c82"/>
	</g>
</g><g>
	<g>
		<rect x="384" y="248" width="16" height="16" data-original="#000000" class="active-path" data-old_color="#005c82" fill="#005c82"/>
	</g>
</g><g>
	<g>
		<rect x="352" y="248" width="16" height="16" data-original="#000000" class="active-path" data-old_color="#005c82" fill="#005c82"/>
	</g>
</g><g>
	<g>
		<rect x="384" y="280" width="16" height="16" data-original="#000000" class="active-path" data-old_color="#005c82" fill="#005c82"/>
	</g>
</g><g>
	<g>
		<rect x="352" y="280" width="16" height="16" data-original="#000000" class="active-path" data-old_color="#005c82" fill="#005c82"/>
	</g>
</g><g>
	<g>
		<rect x="384" y="328" width="16" height="16" data-original="#000000" class="active-path" data-old_color="#005c82" fill="#005c82"/>
	</g>
</g><g>
	<g>
		<rect x="352" y="328" width="16" height="16" data-original="#000000" class="active-path" data-old_color="#005c82" fill="#005c82"/>
	</g>
</g><g>
	<g>
		<rect x="384" y="360" width="16" height="16" data-original="#000000" class="active-path" data-old_color="#005c82" fill="#005c82"/>
	</g>
</g><g>
	<g>
		<rect x="352" y="360" width="16" height="16" data-original="#000000" class="active-path" data-old_color="#005c82" fill="#005c82"/>
	</g>
</g><g>
	<g>
		<rect x="456" y="264" width="16" height="72" data-original="#000000" class="active-path" data-old_color="#005c82" fill="#005c82"/>
	</g>
</g><g>
	<g>
		<rect x="456" y="352" width="16" height="16" data-original="#000000" class="active-path" data-old_color="#005c82" fill="#005c82"/>
	</g>
</g></g> </svg>
